<?xml version="1.0" encoding="UTF-8"?>
<svg class="mw-100" width="960pt" version="1.1" viewBox="0 -420 960 420" xmlns="http://www.w3.org/2000/svg">
<g transform="scale(1 -1)">
<path d="m480 375v-82.5" fill="none" stroke="#404040" stroke-linecap="round" stroke-linejoin="round"/>
<path d="m220 210v82.5" fill="none" stroke="#404040" stroke-linecap="round" stroke-linejoin="round"/>
<path d="m220 292.5h520" fill="none" stroke="#404040" stroke-linecap="round" stroke-linejoin="round"/>
<path d="m740 210v82.5" fill="none" stroke="#404040" stroke-linecap="round" stroke-linejoin="round"/>
<path d="m220 210v-82.5" fill="none" stroke="#404040" stroke-linecap="round" stroke-linejoin="round"/>
<path d="m90 45v82.5" fill="none" stroke="#404040" stroke-linecap="round" stroke-linejoin="round"/>
<path d="m90 127.5h260" fill="none" stroke="#404040" stroke-linecap="round" stroke-linejoin="round"/>
<path d="m350 45v82.5" fill="none" stroke="#404040" stroke-linecap="round" stroke-linejoin="round"/>
<path d="m0 18v54c0 9.9414 8.0586 18 18 18h144c9.941 0 18-8.0586 18-18v-54c0-9.9414-8.059-18-18-18h-144c-9.9414 0-18 8.0586-18 18" fill="#404040"/>
<path d="m18 45h144" fill="none" stroke="#e6e6e6" stroke-linecap="round" stroke-linejoin="round"/>
<path d="m260 18v54c0 9.9414 8.059 18 18 18h144c9.941 0 18-8.0586 18-18v-54c0-9.9414-8.059-18-18-18h-144c-9.941 0-18 8.0586-18 18" fill="#404040"/>
<path d="m278 45h144" fill="none" stroke="#e6e6e6" stroke-linecap="round" stroke-linejoin="round"/>
<path d="m130 183v54c0 9.941 8.059 18 18 18h144c9.941 0 18-8.059 18-18v-54c0-9.941-8.059-18-18-18h-144c-9.941 0-18 8.059-18 18" fill="#404040"/>
<path d="m148 210h144" fill="none" stroke="#e6e6e6" stroke-linecap="round" stroke-linejoin="round"/>
<path d="m740 210v-82.5" fill="none" stroke="#404040" stroke-linecap="round" stroke-linejoin="round"/>
<path d="m610 45v82.5" fill="none" stroke="#404040" stroke-linecap="round" stroke-linejoin="round"/>
<path d="m610 127.5h260" fill="none" stroke="#404040" stroke-linecap="round" stroke-linejoin="round"/>
<path d="m870 45v82.5" fill="none" stroke="#404040" stroke-linecap="round" stroke-linejoin="round"/>
<path d="m520 18v54c0 9.9414 8.059 18 18 18h144c9.941 0 18-8.0586 18-18v-54c0-9.9414-8.059-18-18-18h-144c-9.941 0-18 8.0586-18 18" fill="#404040"/>
<path d="m538 45h144" fill="none" stroke="#e6e6e6" stroke-linecap="round" stroke-linejoin="round"/>
<path d="m780 18v54c0 9.9414 8.059 18 18 18h144c9.941 0 18-8.0586 18-18v-54c0-9.9414-8.059-18-18-18h-144c-9.941 0-18 8.0586-18 18" fill="#404040"/>
<path d="m798 45h144" fill="none" stroke="#e6e6e6" stroke-linecap="round" stroke-linejoin="round"/>
<path d="m650 183v54c0 9.941 8.059 18 18 18h144c9.941 0 18-8.059 18-18v-54c0-9.941-8.059-18-18-18h-144c-9.941 0-18 8.059-18 18" fill="#404040"/>
<path d="m668 210h144" fill="none" stroke="#e6e6e6" stroke-linecap="round" stroke-linejoin="round"/>
<path d="m390 348v54c0 9.941 8.059 18 18 18h144c9.941 0 18-8.059 18-18v-54c0-9.941-8.059-18-18-18h-144c-9.941 0-18 8.059-18 18" fill="#404040"/>
<path d="m408 375h144" fill="none" stroke="#e6e6e6" stroke-linecap="round" stroke-linejoin="round"/>
<path d="m54.18 61.59h-6.9216l-0.25094-2.8809h0.56188c0.1075 1.315 0.19125 2.3191 1.7212 2.3191h0.58594v-6.9453h-1.6019v-0.56188c0.57375 0.035937 1.8169 0.035937 2.4506 0.035937 0.63344 0 1.8769 0 2.4506-0.035937v0.56188h-1.6019v6.9453h0.57375c1.53 0 1.6138-0.99219 1.7212-2.3191h0.56187l-0.25093 2.8809z" fill="#e6e6e6"/>
<path d="m58.739 56.127c0.2987 0 0.3825 0.01187 0.3825 0.34687 0 1.0638-0.4303 2.4625-2.2831 2.4625-1.5422 0-2.6182-1.0522-2.6182-2.7256 0-1.7334 1.1953-2.7616 2.7616-2.7616 1.6016 0 2.1397 1.2194 2.1397 1.4706 0 0.215-0.2272 0.215-0.2869 0.215-0.2034 0-0.2272-0.05969-0.2869-0.22719-0.2868-0.72906-0.9803-0.98-1.4584-0.98-1.3391 0-1.3391 1.4941-1.3391 2.1994h2.9888zm-2.9888 0.39469c0.01218 0.60937 0.04781 1.9844 1.1 1.9844 1.1357 0 1.1357-1.7097 1.1357-1.9844h-2.2357zm8.6998 0.58562c0 1.1356-0.8847 1.8291-2.355 1.8291-0.3947 0-1.9606-0.02406-1.9606-1.1 0-0.52593 0.4184-0.75312 0.7412-0.75312 0.3706 0 0.7531 0.25125 0.7531 0.75312 0 0.3825-0.2631 0.58594-0.275 0.59782 0.251 0.04781 0.3466 0.07187 0.7054 0.07187 0.7171 0 1.0281-0.57406 1.0281-1.3869v-0.43032c-1.7216-0.03593-3.2875-0.60968-3.2875-1.8647 0-0.99219 1.1237-1.375 2.0203-1.375 0.7291 0 1.2194 0.41844 1.4703 0.95656 0-0.25125 0-0.88469 1.0878-0.88469h0.5022c0.2391 0 0.3825 0 0.3825 0.28688 0 0.23906-0.1197 0.26312-0.2512 0.275-0.5616 0.035937-0.5616 0.19125-0.5616 0.44218v2.5822zm-1.3628-1.9366c0-1.0281-0.7772-1.2909-1.1238-1.2909-0.49 0-0.765 0.49-0.765 0.94438 0 1.3147 1.5778 1.4581 1.8888 1.4822v-1.1356zm11.286 2.0441c0 0.89656-0.2872 1.6856-1.6141 1.6856-0.8487 0-1.4225-0.46625-1.7453-1.0878-0.2269 1.0519-1.1834 1.0878-1.5659 1.0878-0.8607 0-1.4703-0.49032-1.8169-1.2075h-0.0119v1.2075l-2.0562-0.09563v-0.56187c0.7412 0 0.825 0 0.825-0.46625v-3.6938h-0.825v-0.56188c0.3347 0.011875 1.0518 0.035937 1.5062 0.035937 0.4663 0 1.1716-0.024062 1.5063-0.035937v0.56188h-0.825v2.4984c0 1.3269 0.9206 1.8888 1.5184 1.8888 0.1913 0 0.4303-0.06 0.4303-1.1119v-3.2753h-0.7772v-0.56188c0.4303 0.011875 1.0041 0.035937 1.4703 0.035937 0.5382 0 1.2554-0.024062 1.4944-0.035937v0.56188h-0.825v2.4984c0 1.3269 0.9206 1.8888 1.5185 1.8888 0.1912 0 0.4303-0.06 0.4303-1.1119v-3.2753h-0.7772v-0.56188c0.4303 0.011875 1.0044 0.035937 1.4703 0.035937 0.5381 0 1.2553-0.024062 1.4944-0.035937v0.56188h-0.8247v3.1319z" fill="#e6e6e6"/>
<path d="m84.892 55.41-2.2831 6.0009c-0.1075 0.275-0.1675 0.31094-0.4903 0.31094h-2.4981v-0.56188h1.1234v-6.7303c0-0.26281 0-0.275-0.2869-0.31062-0.2628-0.035937-0.514-0.035937-0.5975-0.035937h-0.239v-0.56188c0.4422 0.011875 1.004 0.035937 1.4343 0.035937 0.4422 0 1.016-0.024062 1.4466-0.035937v0.56188h-0.2391c-0.2512 0-0.5021 0.02375-0.5859 0.035937-0.2987 0.035625-0.2987 0.047813-0.2987 0.31062v6.4194h0.0118l2.6778-7.0291c0.0597-0.15531 0.1075-0.29875 0.3585-0.29875 0.239 0 0.2869 0.15531 0.3469 0.29875l2.7493 7.2203h0.0119v-6.9572h-1.1237v-0.56188c0.4184 0.035937 1.3987 0.035937 1.865 0.035937 0.4662 0 1.4584 0 1.8768-0.035937v0.56188h-1.1237v7.0769h1.1237v0.56188h-2.4865c-0.251 0-0.3825 0-0.49-0.29907l-2.2835-6.0128zm10.533 0.71719c0.2987 0 0.3825 0.01187 0.3825 0.34687 0 1.0638-0.4303 2.4625-2.2832 2.4625-1.5421 0-2.6181-1.0522-2.6181-2.7256 0-1.7334 1.1953-2.7616 2.7616-2.7616 1.6015 0 2.1397 1.2194 2.1397 1.4706 0 0.215-0.2272 0.215-0.2869 0.215-0.2034 0-0.2272-0.05969-0.2869-0.22719-0.2869-0.72906-0.9803-0.98-1.4584-0.98-1.3391 0-1.3391 1.4941-1.3391 2.1994h2.9888zm-2.9888 0.39469c0.0122 0.60937 0.0478 1.9844 1.1 1.9844 1.1356 0 1.1356-1.7097 1.1356-1.9844h-2.2356zm12.812 0.69312c0 0.89656-0.2872 1.6856-1.6141 1.6856-0.8487 0-1.4225-0.46625-1.7453-1.0878-0.2269 1.0519-1.1834 1.0878-1.5659 1.0878-0.8607 0-1.4704-0.49032-1.8169-1.2075h-0.0119v1.2075l-2.0562-0.09563v-0.56187c0.7412 0 0.825 0 0.825-0.46625v-3.6938h-0.825v-0.56188c0.3346 0.011875 1.0518 0.035937 1.5062 0.035937 0.4663 0 1.1716-0.024062 1.5063-0.035937v0.56188h-0.825v2.4984c0 1.3269 0.9206 1.8888 1.5184 1.8888 0.1912 0 0.4303-0.06 0.4303-1.1119v-3.2753h-0.7772v-0.56188c0.4303 0.011875 1.0041 0.035937 1.4703 0.035937 0.5382 0 1.2553-0.024062 1.4944-0.035937v0.56188h-0.825v2.4984c0 1.3269 0.9206 1.8888 1.5184 1.8888 0.1913 0 0.4304-0.06 0.4304-1.1119v-3.2753h-0.7772v-0.56188c0.4303 0.011875 1.0043 0.035937 1.4703 0.035937 0.5381 0 1.2553-0.024062 1.4944-0.035937v0.56188h-0.8247v3.1319z" fill="#e6e6e6"/>
<path d="m108.09 61.817-2.1159-0.09562v-0.56188c0.7412 0 0.825 0 0.825-0.46625v-7.1725h0.5737l0.5738 0.56188c0.2628-0.28688 0.7409-0.63375 1.4462-0.63375 1.4466 0 2.63 0.96844 2.63 2.7256 0 1.8291-1.1834 2.7256-2.4866 2.7256-0.5737 0-1.04-0.17938-1.4462-0.50219v3.4191zm0.0716-4.0288c0.3946 0.51406 0.8609 0.68156 1.2553 0.68156 0.4303 0 0.789-0.28687 0.9325-0.74125 0.1434-0.39437 0.1434-1.0638 0.1434-1.5422 0-0.57375 0-1.1594-0.1794-1.6138-0.1793-0.40625-0.5737-0.69313-1.0162-0.69313-0.4422 0-0.8247 0.23906-1.1356 0.70531v3.2034z" fill="#e6e6e6"/>
<path d="m117.6 56.127c0.2988 0 0.3825 0.01187 0.3825 0.34687 0 1.0638-0.4303 2.4625-2.2831 2.4625-1.5422 0-2.6181-1.0522-2.6181-2.7256 0-1.7334 1.1953-2.7616 2.7615-2.7616 1.6016 0 2.1397 1.2194 2.1397 1.4706 0 0.215-0.2272 0.215-0.2869 0.215-0.2034 0-0.2272-0.05969-0.2868-0.22719-0.2869-0.72906-0.9804-0.98-1.4585-0.98-1.339 0-1.339 1.4941-1.339 2.1994h2.9887zm-2.9887 0.39469c0.0121 0.60937 0.0478 1.9844 1.1 1.9844 1.1356 0 1.1356-1.7097 1.1356-1.9844h-2.2356zm6.0219-0.29907c0 0.89657 0.1794 2.2475 1.2431 2.2475-0.0118-0.01187-0.2272-0.20343-0.2272-0.55 0-0.49 0.3825-0.72906 0.7294-0.72906 0.3466 0 0.7291 0.25094 0.7291 0.72906 0 0.66938-0.7053 0.98032-1.2791 0.98032-0.5497 0-1.0519-0.28688-1.315-1.0878h-0.0119v1.0878l-1.9843-0.09563v-0.56187c0.7412 0 0.825 0 0.825-0.46625v-3.6938h-0.825v-0.56188c0.4184 0.011875 0.9562 0.035937 1.5062 0.035937 0.4544 0 1.2194 0 1.6497-0.035937v0.56188h-1.04v2.1397z" fill="#e6e6e6"/>
<path d="m131.18 60.968c0 0.3825-0.0597 0.3825-0.4659 0.3825-0.7891-0.765-2.0444-0.765-2.4628-0.765v-0.56187c0.3109 0 0.8728 0 1.5062 0.20312v-6.1444h-1.3387v-0.56188c0.4543 0.035937 1.5421 0.035937 2.0562 0.035937 0.5138 0 1.6375 0 2.0919-0.035937v0.56188h-1.3869v6.8856z" fill="#e6e6e6"/>
<path d="m314.18 61.59h-6.9216l-0.25094-2.8809h0.56188c0.1075 1.315 0.19125 2.3191 1.7212 2.3191h0.58594v-6.9453h-1.6019v-0.56188c0.57375 0.035937 1.8169 0.035937 2.4506 0.035937 0.63344 0 1.8769 0 2.4506-0.035937v0.56188h-1.6019v6.9453h0.57375c1.53 0 1.6138-0.99219 1.7212-2.3191h0.56187l-0.25093 2.8809z" fill="#e6e6e6"/>
<path d="m318.74 56.127c0.2987 0 0.3825 0.01187 0.3825 0.34687 0 1.0638-0.4303 2.4625-2.2831 2.4625-1.5422 0-2.6182-1.0522-2.6182-2.7256 0-1.7334 1.1953-2.7616 2.7616-2.7616 1.6016 0 2.1397 1.2194 2.1397 1.4706 0 0.215-0.2272 0.215-0.2869 0.215-0.2034 0-0.2272-0.05969-0.2869-0.22719-0.2868-0.72906-0.9803-0.98-1.4584-0.98-1.3391 0-1.3391 1.4941-1.3391 2.1994h2.9888zm-2.9888 0.39469c0.01218 0.60937 0.04781 1.9844 1.1 1.9844 1.1357 0 1.1357-1.7097 1.1357-1.9844h-2.2357zm8.6998 0.58562c0 1.1356-0.8847 1.8291-2.355 1.8291-0.3947 0-1.9606-0.02406-1.9606-1.1 0-0.52593 0.4184-0.75312 0.7412-0.75312 0.3706 0 0.7531 0.25125 0.7531 0.75312 0 0.3825-0.2631 0.58594-0.275 0.59782 0.251 0.04781 0.3466 0.07187 0.7054 0.07187 0.7171 0 1.0281-0.57406 1.0281-1.3869v-0.43032c-1.7216-0.03593-3.2875-0.60968-3.2875-1.8647 0-0.99219 1.1237-1.375 2.0203-1.375 0.7291 0 1.2194 0.41844 1.4703 0.95656 0-0.25125 0-0.88469 1.0878-0.88469h0.5022c0.2391 0 0.3825 0 0.3825 0.28688 0 0.23906-0.1197 0.26312-0.2512 0.275-0.5616 0.035937-0.5616 0.19125-0.5616 0.44218v2.5822zm-1.3628-1.9366c0-1.0281-0.7772-1.2909-1.1238-1.2909-0.49 0-0.765 0.49-0.765 0.94438 0 1.3147 1.5778 1.4581 1.8888 1.4822v-1.1356zm11.286 2.0441c0 0.89656-0.2872 1.6856-1.6141 1.6856-0.8487 0-1.4225-0.46625-1.7453-1.0878-0.2269 1.0519-1.1834 1.0878-1.5659 1.0878-0.8607 0-1.4703-0.49032-1.8169-1.2075h-0.0119v1.2075l-2.0562-0.09563v-0.56187c0.7412 0 0.825 0 0.825-0.46625v-3.6938h-0.825v-0.56188c0.3347 0.011875 1.0518 0.035937 1.5062 0.035937 0.4663 0 1.1716-0.024062 1.5063-0.035937v0.56188h-0.825v2.4984c0 1.3269 0.9206 1.8888 1.5184 1.8888 0.1913 0 0.4303-0.06 0.4303-1.1119v-3.2753h-0.7772v-0.56188c0.4303 0.011875 1.0041 0.035937 1.4703 0.035937 0.5382 0 1.2554-0.024062 1.4944-0.035937v0.56188h-0.825v2.4984c0 1.3269 0.9206 1.8888 1.5185 1.8888 0.1912 0 0.4303-0.06 0.4303-1.1119v-3.2753h-0.7772v-0.56188c0.4303 0.011875 1.0044 0.035937 1.4703 0.035937 0.5381 0 1.2553-0.024062 1.4944-0.035937v0.56188h-0.8247v3.1319z" fill="#e6e6e6"/>
<path d="m344.89 55.41-2.2831 6.0009c-0.1075 0.275-0.1675 0.31094-0.4903 0.31094h-2.4981v-0.56188h1.1234v-6.7303c0-0.26281 0-0.275-0.2869-0.31062-0.2628-0.035937-0.514-0.035937-0.5975-0.035937h-0.239v-0.56188c0.4422 0.011875 1.004 0.035937 1.4343 0.035937 0.4422 0 1.016-0.024062 1.4466-0.035937v0.56188h-0.2391c-0.2512 0-0.5021 0.02375-0.5859 0.035937-0.2987 0.035625-0.2987 0.047813-0.2987 0.31062v6.4194h0.0118l2.6778-7.0291c0.0597-0.15531 0.1075-0.29875 0.3585-0.29875 0.239 0 0.2869 0.15531 0.3469 0.29875l2.7493 7.2203h0.0119v-6.9572h-1.1237v-0.56188c0.4184 0.035937 1.3987 0.035937 1.865 0.035937 0.4662 0 1.4584 0 1.8768-0.035937v0.56188h-1.1237v7.0769h1.1237v0.56188h-2.4865c-0.251 0-0.3825 0-0.49-0.29907l-2.2835-6.0128zm10.533 0.71719c0.2987 0 0.3825 0.01187 0.3825 0.34687 0 1.0638-0.4303 2.4625-2.2832 2.4625-1.5421 0-2.6181-1.0522-2.6181-2.7256 0-1.7334 1.1953-2.7616 2.7616-2.7616 1.6015 0 2.1397 1.2194 2.1397 1.4706 0 0.215-0.2272 0.215-0.2869 0.215-0.2034 0-0.2272-0.05969-0.2869-0.22719-0.2869-0.72906-0.9803-0.98-1.4584-0.98-1.3391 0-1.3391 1.4941-1.3391 2.1994h2.9888zm-2.9888 0.39469c0.0122 0.60937 0.0478 1.9844 1.1 1.9844 1.1356 0 1.1356-1.7097 1.1356-1.9844h-2.2356zm12.812 0.69312c0 0.89656-0.2872 1.6856-1.6141 1.6856-0.8487 0-1.4225-0.46625-1.7453-1.0878-0.2269 1.0519-1.1834 1.0878-1.5659 1.0878-0.8607 0-1.4704-0.49032-1.8169-1.2075h-0.0119v1.2075l-2.0562-0.09563v-0.56187c0.7412 0 0.825 0 0.825-0.46625v-3.6938h-0.825v-0.56188c0.3346 0.011875 1.0518 0.035937 1.5062 0.035937 0.4663 0 1.1716-0.024062 1.5063-0.035937v0.56188h-0.825v2.4984c0 1.3269 0.9206 1.8888 1.5184 1.8888 0.1912 0 0.4303-0.06 0.4303-1.1119v-3.2753h-0.7772v-0.56188c0.4303 0.011875 1.0041 0.035937 1.4703 0.035937 0.5382 0 1.2553-0.024062 1.4944-0.035937v0.56188h-0.825v2.4984c0 1.3269 0.9206 1.8888 1.5184 1.8888 0.1913 0 0.4304-0.06 0.4304-1.1119v-3.2753h-0.7772v-0.56188c0.4303 0.011875 1.0043 0.035937 1.4703 0.035937 0.5381 0 1.2553-0.024062 1.4944-0.035937v0.56188h-0.8247v3.1319z" fill="#e6e6e6"/>
<path d="m368.09 61.817-2.1159-0.09562v-0.56188c0.7412 0 0.825 0 0.825-0.46625v-7.1725h0.5737l0.5738 0.56188c0.2628-0.28688 0.7409-0.63375 1.4462-0.63375 1.4466 0 2.63 0.96844 2.63 2.7256 0 1.8291-1.1834 2.7256-2.4866 2.7256-0.5737 0-1.04-0.17938-1.4462-0.50219v3.4191zm0.0716-4.0288c0.3946 0.51406 0.8609 0.68156 1.2553 0.68156 0.4303 0 0.789-0.28687 0.9325-0.74125 0.1434-0.39437 0.1434-1.0638 0.1434-1.5422 0-0.57375 0-1.1594-0.1794-1.6138-0.1793-0.40625-0.5737-0.69313-1.0162-0.69313-0.4422 0-0.8247 0.23906-1.1356 0.70531v3.2034z" fill="#e6e6e6"/>
<path d="m377.6 56.127c0.2988 0 0.3825 0.01187 0.3825 0.34687 0 1.0638-0.4303 2.4625-2.2831 2.4625-1.5422 0-2.6181-1.0522-2.6181-2.7256 0-1.7334 1.1953-2.7616 2.7615-2.7616 1.6016 0 2.1397 1.2194 2.1397 1.4706 0 0.215-0.2272 0.215-0.2869 0.215-0.2034 0-0.2272-0.05969-0.2868-0.22719-0.2869-0.72906-0.9804-0.98-1.4585-0.98-1.339 0-1.339 1.4941-1.339 2.1994h2.9887zm-2.9887 0.39469c0.0121 0.60937 0.0478 1.9844 1.1 1.9844 1.1356 0 1.1356-1.7097 1.1356-1.9844h-2.2356zm6.0219-0.29907c0 0.89657 0.1794 2.2475 1.2431 2.2475-0.0118-0.01187-0.2272-0.20343-0.2272-0.55 0-0.49 0.3825-0.72906 0.7294-0.72906 0.3466 0 0.7291 0.25094 0.7291 0.72906 0 0.66938-0.7053 0.98032-1.2791 0.98032-0.5497 0-1.0519-0.28688-1.315-1.0878h-0.0119v1.0878l-1.9843-0.09563v-0.56187c0.7412 0 0.825 0 0.825-0.46625v-3.6938h-0.825v-0.56188c0.4184 0.011875 0.9562 0.035937 1.5062 0.035937 0.4544 0 1.2194 0 1.6497-0.035937v0.56188h-1.04v2.1397z" fill="#e6e6e6"/>
<path d="m392.79 56.175h-0.5619c-0.0359-0.28687-0.1197-0.8725-0.2631-1.0638-0.0597-0.09562-1.076-0.09562-1.0878-0.09562h-1.4344c0.3228 0.28687 1.0878 1.04 1.4106 1.3269 0.2391 0.22719 0.8606 0.75313 1.0997 0.98 0.5856 0.59781 0.8369 1.1597 0.8369 1.7694 0 1.315-1.076 2.2594-2.5344 2.2594-1.2672 0-2.2353-0.81281-2.2353-1.8172 0-0.70531 0.5737-0.88437 0.8606-0.88437 0.3825 0 0.8606 0.26281 0.8606 0.86062 0 0.49-0.3106 0.78875-0.729 0.86063 0.3225 0.35875 0.7768 0.41844 0.98 0.41844 1.0162 0 1.1478-1.2075 1.1478-1.6975 0-0.66938-0.2272-1.4944-1.1119-2.5941l-1.8887-2.3669c-0.1194-0.14344-0.1194-0.1675-0.1194-0.39438v-0.21531h4.399l0.3707 2.6537z" fill="#e6e6e6"/>
<path d="m188.35 226.59h-6.9216l-0.25094-2.8809h0.56188c0.1075 1.315 0.19125 2.3191 1.7213 2.3191h0.58594v-6.9453h-1.6019v-0.56188c0.57375 0.035937 1.8169 0.035937 2.4506 0.035937 0.63343 0 1.8769 0 2.4506-0.035937v0.56188h-1.6019v6.9453h0.57375c1.53 0 1.6138-0.99219 1.7212-2.3191h0.56187l-0.25094 2.8809z" fill="#e6e6e6"/>
<path d="m192.91 221.13c0.2987 0 0.3825 0.01187 0.3825 0.34687 0 1.0638-0.4303 2.4625-2.2832 2.4625-1.5421 0-2.6181-1.0522-2.6181-2.7256 0-1.7334 1.1953-2.7616 2.7616-2.7616 1.6016 0 2.1397 1.2194 2.1397 1.4706 0 0.215-0.2272 0.215-0.2869 0.215-0.2034 0-0.2272-0.05969-0.2869-0.22719-0.2868-0.72906-0.9803-0.98-1.4584-0.98-1.3391 0-1.3391 1.4941-1.3391 2.1994h2.9888zm-2.9888 0.39469c0.01218 0.60937 0.04781 1.9844 1.1 1.9844 1.1356 0 1.1356-1.7097 1.1356-1.9844h-2.2356zm8.6998 0.58562c0 1.1356-0.8847 1.8291-2.355 1.8291-0.3947 0-1.9606-0.02406-1.9606-1.1 0-0.52593 0.4184-0.75312 0.7412-0.75312 0.3706 0 0.7531 0.25125 0.7531 0.75312 0 0.3825-0.2631 0.58594-0.275 0.59782 0.251 0.04781 0.3466 0.07187 0.7054 0.07187 0.7171 0 1.0281-0.57406 1.0281-1.3869v-0.43032c-1.7216-0.03593-3.2875-0.60968-3.2875-1.8647 0-0.99219 1.1237-1.375 2.0203-1.375 0.7291 0 1.2194 0.41844 1.4703 0.95656 0-0.25125 0-0.88469 1.0878-0.88469h0.5022c0.2391 0 0.3825 0 0.3825 0.28688 0 0.23906-0.1197 0.26312-0.2512 0.275-0.5616 0.035937-0.5616 0.19125-0.5616 0.44218v2.5822zm-1.3628-1.9366c0-1.0281-0.7772-1.2909-1.1238-1.2909-0.49 0-0.765 0.49-0.765 0.94438 0 1.3147 1.5778 1.4581 1.8888 1.4822v-1.1356zm11.286 2.0441c0 0.89656-0.2872 1.6856-1.6141 1.6856-0.8487 0-1.4225-0.46625-1.7453-1.0878-0.2269 1.0519-1.1834 1.0878-1.5659 1.0878-0.8607 0-1.4703-0.49032-1.8169-1.2075h-0.0119v1.2075l-2.0562-0.09563v-0.56187c0.7412 0 0.825 0 0.825-0.46625v-3.6938h-0.825v-0.56188c0.3347 0.011875 1.0518 0.035937 1.5062 0.035937 0.4663 0 1.1716-0.024062 1.5063-0.035937v0.56188h-0.825v2.4984c0 1.3269 0.9206 1.8888 1.5184 1.8888 0.1913 0 0.4303-0.06 0.4303-1.1119v-3.2753h-0.7772v-0.56188c0.4303 0.011875 1.0041 0.035937 1.4703 0.035937 0.5382 0 1.2554-0.024062 1.4944-0.035937v0.56188h-0.825v2.4984c0 1.3269 0.9206 1.8888 1.5185 1.8888 0.1912 0 0.4303-0.06 0.4303-1.1119v-3.2753h-0.7772v-0.56188c0.4303 0.011875 1.0044 0.035937 1.4703 0.035937 0.5381 0 1.2553-0.024062 1.4944-0.035937v0.56188h-0.8247v3.1319z" fill="#e6e6e6"/>
<path d="m220.03 221.8h-0.5619c-0.0837-0.86062-0.2869-2.7134-2.08-2.7134h-0.789v7.0769h1.4106v0.56188c-0.49-0.03594-1.6735-0.03594-2.2116-0.03594-0.4781 0-1.6019 0-2.02 0.03594v-0.56188h1.1235v-7.0769h-1.1235v-0.56188h5.8813l0.3706 3.2753zm5.368-0.66937c0.2988 0 0.3825 0.01187 0.3825 0.34687 0 1.0638-0.4303 2.4625-2.2831 2.4625-1.5422 0-2.6181-1.0522-2.6181-2.7256 0-1.7334 1.1953-2.7616 2.7616-2.7616 1.6015 0 2.1396 1.2194 2.1396 1.4706 0 0.215-0.2271 0.215-0.2868 0.215-0.2035 0-0.2272-0.05969-0.2869-0.22719-0.2869-0.72906-0.9803-0.98-1.4584-0.98-1.3391 0-1.3391 1.4941-1.3391 2.1994h2.9887zm-2.9887 0.39469c0.0122 0.60937 0.0478 1.9844 1.1 1.9844 1.1356 0 1.1356-1.7097 1.1356-1.9844h-2.2356zm8.6998 0.58562c0 1.1356-0.8847 1.8291-2.355 1.8291-0.3947 0-1.9607-0.02406-1.9607-1.1 0-0.52593 0.4185-0.75312 0.7413-0.75312 0.3706 0 0.7531 0.25125 0.7531 0.75312 0 0.3825-0.2631 0.58594-0.275 0.59782 0.2509 0.04781 0.3466 0.07187 0.7053 0.07187 0.7172 0 1.0281-0.57406 1.0281-1.3869v-0.43032c-1.7215-0.03593-3.2875-0.60968-3.2875-1.8647 0-0.99219 1.1238-1.375 2.0204-1.375 0.729 0 1.2193 0.41844 1.4703 0.95656 0-0.25125 0-0.88469 1.0878-0.88469h0.5022c0.239 0 0.3825 0 0.3825 0.28688 0 0.23906-0.1197 0.26312-0.2513 0.275-0.5615 0.035937-0.5615 0.19125-0.5615 0.44218v2.5822zm-1.3629-1.9366c0-1.0281-0.7771-1.2909-1.1237-1.2909-0.49 0-0.765 0.49-0.765 0.94438 0 1.3147 1.5778 1.4581 1.8887 1.4822v-1.1356zm5.6918 6.5509v-0.56188c0.7412 0 0.825 0 0.825-0.46625v-2.2475c-0.5382 0.41844-1.0282 0.45438-1.315 0.45438-1.4225 0-2.6182-0.95625-2.6182-2.7256 0-1.8169 1.1716-2.7256 2.4985-2.7256 0.4903 0 0.9562 0.15562 1.3628 0.49031v-0.49031l2.1875 0.071875v0.56188c-0.741 0-0.8247 0-0.8247 0.46625v7.2681l-2.1159-0.09562zm0.7531-7.0769c-0.275-0.43031-0.7172-0.765-1.255-0.765-0.4425 0-0.7891 0.29875-0.9444 0.75313-0.1316 0.40625-0.1316 1.1116-0.1316 1.53 0 0.47812 0 1.1116 0.1435 1.53 0.1794 0.47812 0.5737 0.77718 1.0637 0.77718 0.3707 0 0.801-0.17937 1.1238-0.63375v-3.1916zm7.2401 1.4822c0.2987 0 0.3825 0.01187 0.3825 0.34687 0 1.0638-0.4303 2.4625-2.2832 2.4625-1.5421 0-2.6181-1.0522-2.6181-2.7256 0-1.7334 1.1953-2.7616 2.7616-2.7616 1.6015 0 2.1397 1.2194 2.1397 1.4706 0 0.215-0.2272 0.215-0.2869 0.215-0.2034 0-0.2272-0.05969-0.2869-0.22719-0.2869-0.72906-0.9803-0.98-1.4584-0.98-1.3391 0-1.3391 1.4941-1.3391 2.1994h2.9888zm-2.9888 0.39469c0.0122 0.60937 0.0478 1.9844 1.1 1.9844 1.1356 0 1.1356-1.7097 1.1356-1.9844h-2.2356zm6.022-0.29907c0 0.89657 0.1793 2.2475 1.2431 2.2475-0.0119-0.01187-0.2272-0.20343-0.2272-0.55 0-0.49 0.3825-0.72906 0.7294-0.72906 0.3465 0 0.729 0.25094 0.729 0.72906 0 0.66938-0.7053 0.98032-1.279 0.98032-0.5497 0-1.0519-0.28688-1.315-1.0878h-0.0119v1.0878l-1.9844-0.09563v-0.56187c0.7413 0 0.825 0 0.825-0.46625v-3.6938h-0.825v-0.56188c0.4185 0.011875 0.9563 0.035937 1.5063 0.035937 0.4544 0 1.2194 0 1.6497-0.035937v0.56188h-1.04v2.1397z" fill="#e6e6e6"/>
<path d="m257.01 225.97c0 0.3825-0.0597 0.3825-0.466 0.3825-0.789-0.765-2.0443-0.765-2.4628-0.765v-0.56187c0.311 0 0.8728 0 1.5063 0.20312v-6.1444h-1.3388v-0.56188c0.4544 0.035937 1.5422 0.035937 2.0563 0.035937 0.5137 0 1.6375 0 2.0918-0.035937v0.56188h-1.3868v6.8856z" fill="#e6e6e6"/>
<path d="m574.18 61.59h-6.9216l-0.25094-2.8809h0.56188c0.1075 1.315 0.19125 2.3191 1.7213 2.3191h0.58594v-6.9453h-1.6019v-0.56188c0.57375 0.035937 1.8169 0.035937 2.4506 0.035937 0.63343 0 1.8769 0 2.4506-0.035937v0.56188h-1.6019v6.9453h0.57375c1.53 0 1.6138-0.99219 1.7212-2.3191h0.56187l-0.25094 2.8809z" fill="#e6e6e6"/>
<path d="m578.74 56.127c0.2987 0 0.3825 0.01187 0.3825 0.34687 0 1.0638-0.4303 2.4625-2.2832 2.4625-1.5421 0-2.6181-1.0522-2.6181-2.7256 0-1.7334 1.1953-2.7616 2.7616-2.7616 1.6016 0 2.1397 1.2194 2.1397 1.4706 0 0.215-0.2272 0.215-0.2869 0.215-0.2034 0-0.2272-0.05969-0.2869-0.22719-0.2868-0.72906-0.9803-0.98-1.4584-0.98-1.3391 0-1.3391 1.4941-1.3391 2.1994h2.9888zm-2.9888 0.39469c0.01218 0.60937 0.04781 1.9844 1.1 1.9844 1.1356 0 1.1356-1.7097 1.1356-1.9844h-2.2356zm8.6998 0.58562c0 1.1356-0.8847 1.8291-2.355 1.8291-0.3947 0-1.9606-0.02406-1.9606-1.1 0-0.52593 0.4184-0.75312 0.7412-0.75312 0.3706 0 0.7531 0.25125 0.7531 0.75312 0 0.3825-0.2631 0.58594-0.275 0.59782 0.251 0.04781 0.3466 0.07187 0.7054 0.07187 0.7171 0 1.0281-0.57406 1.0281-1.3869v-0.43032c-1.7216-0.03593-3.2875-0.60968-3.2875-1.8647 0-0.99219 1.1237-1.375 2.0203-1.375 0.7291 0 1.2194 0.41844 1.4703 0.95656 0-0.25125 0-0.88469 1.0878-0.88469h0.5022c0.2391 0 0.3825 0 0.3825 0.28688 0 0.23906-0.1197 0.26312-0.2512 0.275-0.5616 0.035937-0.5616 0.19125-0.5616 0.44218v2.5822zm-1.3628-1.9366c0-1.0281-0.7772-1.2909-1.1238-1.2909-0.49 0-0.765 0.49-0.765 0.94438 0 1.3147 1.5778 1.4581 1.8888 1.4822v-1.1356zm11.286 2.0441c0 0.89656-0.2872 1.6856-1.6141 1.6856-0.8487 0-1.4225-0.46625-1.7453-1.0878-0.2269 1.0519-1.1834 1.0878-1.5659 1.0878-0.8607 0-1.4703-0.49032-1.8169-1.2075h-0.0119v1.2075l-2.0562-0.09563v-0.56187c0.7412 0 0.825 0 0.825-0.46625v-3.6938h-0.825v-0.56188c0.3347 0.011875 1.0518 0.035937 1.5062 0.035937 0.4663 0 1.1716-0.024062 1.5063-0.035937v0.56188h-0.825v2.4984c0 1.3269 0.9206 1.8888 1.5184 1.8888 0.1913 0 0.4303-0.06 0.4303-1.1119v-3.2753h-0.7772v-0.56188c0.4303 0.011875 1.0041 0.035937 1.4703 0.035937 0.5382 0 1.2554-0.024062 1.4944-0.035937v0.56188h-0.825v2.4984c0 1.3269 0.9206 1.8888 1.5185 1.8888 0.1912 0 0.4303-0.06 0.4303-1.1119v-3.2753h-0.7772v-0.56188c0.4303 0.011875 1.0044 0.035937 1.4703 0.035937 0.5381 0 1.2553-0.024062 1.4944-0.035937v0.56188h-0.8247v3.1319z" fill="#e6e6e6"/>
<path d="m604.89 55.41-2.2831 6.0009c-0.1075 0.275-0.1675 0.31094-0.4903 0.31094h-2.4981v-0.56188h1.1234v-6.7303c0-0.26281 0-0.275-0.2869-0.31062-0.2628-0.035937-0.514-0.035937-0.5975-0.035937h-0.239v-0.56188c0.4422 0.011875 1.004 0.035937 1.4343 0.035937 0.4422 0 1.016-0.024062 1.4466-0.035937v0.56188h-0.2391c-0.2512 0-0.5021 0.02375-0.5859 0.035937-0.2987 0.035625-0.2987 0.047813-0.2987 0.31062v6.4194h0.0118l2.6778-7.0291c0.0597-0.15531 0.1075-0.29875 0.3585-0.29875 0.239 0 0.2869 0.15531 0.3469 0.29875l2.7493 7.2203h0.0119v-6.9572h-1.1237v-0.56188c0.4184 0.035937 1.3987 0.035937 1.865 0.035937 0.4662 0 1.4584 0 1.8768-0.035937v0.56188h-1.1237v7.0769h1.1237v0.56188h-2.4865c-0.251 0-0.3825 0-0.49-0.29907l-2.2835-6.0128zm10.533 0.71719c0.2987 0 0.3825 0.01187 0.3825 0.34687 0 1.0638-0.4303 2.4625-2.2832 2.4625-1.5421 0-2.6181-1.0522-2.6181-2.7256 0-1.7334 1.1953-2.7616 2.7616-2.7616 1.6015 0 2.1397 1.2194 2.1397 1.4706 0 0.215-0.2272 0.215-0.2869 0.215-0.2034 0-0.2272-0.05969-0.2869-0.22719-0.2869-0.72906-0.9803-0.98-1.4584-0.98-1.3391 0-1.3391 1.4941-1.3391 2.1994h2.9888zm-2.9888 0.39469c0.0122 0.60937 0.0478 1.9844 1.1 1.9844 1.1356 0 1.1356-1.7097 1.1356-1.9844h-2.2356zm12.812 0.69312c0 0.89656-0.2872 1.6856-1.6141 1.6856-0.8487 0-1.4225-0.46625-1.7453-1.0878-0.2269 1.0519-1.1834 1.0878-1.5659 1.0878-0.8607 0-1.4704-0.49032-1.8169-1.2075h-0.0119v1.2075l-2.0562-0.09563v-0.56187c0.7412 0 0.825 0 0.825-0.46625v-3.6938h-0.825v-0.56188c0.3346 0.011875 1.0518 0.035937 1.5062 0.035937 0.4663 0 1.1716-0.024062 1.5063-0.035937v0.56188h-0.825v2.4984c0 1.3269 0.9206 1.8888 1.5184 1.8888 0.1912 0 0.4303-0.06 0.4303-1.1119v-3.2753h-0.7772v-0.56188c0.4303 0.011875 1.0041 0.035937 1.4703 0.035937 0.5382 0 1.2553-0.024062 1.4944-0.035937v0.56188h-0.825v2.4984c0 1.3269 0.9206 1.8888 1.5184 1.8888 0.1913 0 0.4304-0.06 0.4304-1.1119v-3.2753h-0.7772v-0.56188c0.4303 0.011875 1.0043 0.035937 1.4703 0.035937 0.5381 0 1.2553-0.024062 1.4944-0.035937v0.56188h-0.8247v3.1319z" fill="#e6e6e6"/>
<path d="m628.09 61.817-2.1159-0.09562v-0.56188c0.7412 0 0.825 0 0.825-0.46625v-7.1725h0.5737l0.5738 0.56188c0.2628-0.28688 0.7409-0.63375 1.4462-0.63375 1.4466 0 2.63 0.96844 2.63 2.7256 0 1.8291-1.1834 2.7256-2.4866 2.7256-0.5737 0-1.04-0.17938-1.4462-0.50219v3.4191zm0.0716-4.0288c0.3946 0.51406 0.8609 0.68156 1.2553 0.68156 0.4303 0 0.789-0.28687 0.9325-0.74125 0.1434-0.39437 0.1434-1.0638 0.1434-1.5422 0-0.57375 0-1.1594-0.1794-1.6138-0.1793-0.40625-0.5737-0.69313-1.0162-0.69313-0.4422 0-0.8247 0.23906-1.1356 0.70531v3.2034z" fill="#e6e6e6"/>
<path d="m637.6 56.127c0.2988 0 0.3825 0.01187 0.3825 0.34687 0 1.0638-0.4303 2.4625-2.2831 2.4625-1.5422 0-2.6182-1.0522-2.6182-2.7256 0-1.7334 1.1954-2.7616 2.7616-2.7616 1.6016 0 2.1397 1.2194 2.1397 1.4706 0 0.215-0.2272 0.215-0.2869 0.215-0.2034 0-0.2272-0.05969-0.2868-0.22719-0.2869-0.72906-0.9804-0.98-1.4585-0.98-1.339 0-1.339 1.4941-1.339 2.1994h2.9887zm-2.9887 0.39469c0.0121 0.60937 0.0478 1.9844 1.1 1.9844 1.1356 0 1.1356-1.7097 1.1356-1.9844h-2.2356zm6.0219-0.29907c0 0.89657 0.1794 2.2475 1.2431 2.2475-0.0118-0.01187-0.2272-0.20343-0.2272-0.55 0-0.49 0.3825-0.72906 0.7294-0.72906 0.3466 0 0.7291 0.25094 0.7291 0.72906 0 0.66938-0.7053 0.98032-1.2791 0.98032-0.5497 0-1.0519-0.28688-1.315-1.0878h-0.0119v1.0878l-1.9843-0.09563v-0.56187c0.7412 0 0.825 0 0.825-0.46625v-3.6938h-0.825v-0.56188c0.4184 0.011875 0.9562 0.035937 1.5062 0.035937 0.4544 0 1.2194 0 1.6497-0.035937v0.56188h-1.04v2.1397z" fill="#e6e6e6"/>
<path d="m650.06 57.466c0.9444 0 0.9922-0.88469 0.9922-1.7812 0-0.64562 0-1.7812-0.8965-1.7812-0.3944 0-0.8607 0.15531-1.1597 0.39438 0.3587 0.071875 0.7531 0.34687 0.7531 0.90875 0 0.53781-0.3825 0.90843-0.9084 0.90843-0.5022 0-0.9203-0.32281-0.9203-0.9325 0-0.96812 0.9443-1.7931 2.295-1.7931 1.7215 0 2.6659 1.04 2.6659 2.2834 0 0.705-0.3588 1.7094-1.8291 2.0441 0.6097 0.23906 1.5063 0.88469 1.5063 1.9725 0 0.96812-0.8847 1.6616-2.3191 1.6616-1.2553 0-1.9965-0.87281-1.9965-1.7094 0-0.56188 0.3946-0.84875 0.825-0.84875 0.5378 0 0.8368 0.3825 0.8368 0.82468 0 0.25094-0.1078 0.75313-0.7653 0.825 0.3706 0.39438 0.8369 0.44219 1.0281 0.44219 0.7413 0 0.7532-0.74125 0.7532-1.1475 0-0.08375 0-0.74125-0.1794-1.2312-0.215-0.53812-0.5019-0.56187-0.9444-0.58594-0.2987-0.02375-0.3825-0.03593-0.3825-0.23906 0-0.215 0.1197-0.215 0.3347-0.215h0.3109z" fill="#e6e6e6"/>
<path d="m834.18 61.59h-6.9216l-0.25094-2.8809h0.56188c0.1075 1.315 0.19125 2.3191 1.7213 2.3191h0.58594v-6.9453h-1.6019v-0.56188c0.57375 0.035937 1.8169 0.035937 2.4506 0.035937 0.63343 0 1.8769 0 2.4506-0.035937v0.56188h-1.6019v6.9453h0.57375c1.53 0 1.6138-0.99219 1.7212-2.3191h0.56187l-0.25094 2.8809z" fill="#e6e6e6"/>
<path d="m838.74 56.127c0.2987 0 0.3825 0.01187 0.3825 0.34687 0 1.0638-0.4303 2.4625-2.2832 2.4625-1.5421 0-2.6181-1.0522-2.6181-2.7256 0-1.7334 1.1953-2.7616 2.7616-2.7616 1.6016 0 2.1397 1.2194 2.1397 1.4706 0 0.215-0.2272 0.215-0.2869 0.215-0.2034 0-0.2272-0.05969-0.2869-0.22719-0.2868-0.72906-0.9803-0.98-1.4584-0.98-1.3391 0-1.3391 1.4941-1.3391 2.1994h2.9888zm-2.9888 0.39469c0.01218 0.60937 0.04781 1.9844 1.1 1.9844 1.1356 0 1.1356-1.7097 1.1356-1.9844h-2.2356zm8.6998 0.58562c0 1.1356-0.8847 1.8291-2.355 1.8291-0.3947 0-1.9606-0.02406-1.9606-1.1 0-0.52593 0.4184-0.75312 0.7412-0.75312 0.3706 0 0.7531 0.25125 0.7531 0.75312 0 0.3825-0.2631 0.58594-0.275 0.59782 0.251 0.04781 0.3466 0.07187 0.7054 0.07187 0.7171 0 1.0281-0.57406 1.0281-1.3869v-0.43032c-1.7216-0.03593-3.2875-0.60968-3.2875-1.8647 0-0.99219 1.1237-1.375 2.0203-1.375 0.7291 0 1.2194 0.41844 1.4703 0.95656 0-0.25125 0-0.88469 1.0878-0.88469h0.5022c0.2391 0 0.3825 0 0.3825 0.28688 0 0.23906-0.1197 0.26312-0.2512 0.275-0.5616 0.035937-0.5616 0.19125-0.5616 0.44218v2.5822zm-1.3628-1.9366c0-1.0281-0.7772-1.2909-1.1238-1.2909-0.49 0-0.765 0.49-0.765 0.94438 0 1.3147 1.5778 1.4581 1.8888 1.4822v-1.1356zm11.286 2.0441c0 0.89656-0.2872 1.6856-1.6141 1.6856-0.8487 0-1.4225-0.46625-1.7453-1.0878-0.2269 1.0519-1.1834 1.0878-1.5659 1.0878-0.8607 0-1.4703-0.49032-1.8169-1.2075h-0.0119v1.2075l-2.0562-0.09563v-0.56187c0.7412 0 0.825 0 0.825-0.46625v-3.6938h-0.825v-0.56188c0.3347 0.011875 1.0518 0.035937 1.5062 0.035937 0.4663 0 1.1716-0.024062 1.5063-0.035937v0.56188h-0.825v2.4984c0 1.3269 0.9206 1.8888 1.5184 1.8888 0.1913 0 0.4303-0.06 0.4303-1.1119v-3.2753h-0.7772v-0.56188c0.4303 0.011875 1.0041 0.035937 1.4703 0.035937 0.5382 0 1.2554-0.024062 1.4944-0.035937v0.56188h-0.825v2.4984c0 1.3269 0.9206 1.8888 1.5185 1.8888 0.1912 0 0.4303-0.06 0.4303-1.1119v-3.2753h-0.7772v-0.56188c0.4303 0.011875 1.0044 0.035937 1.4703 0.035937 0.5381 0 1.2553-0.024062 1.4944-0.035937v0.56188h-0.8247v3.1319z" fill="#e6e6e6"/>
<path d="m864.89 55.41-2.2831 6.0009c-0.1075 0.275-0.1675 0.31094-0.4903 0.31094h-2.4981v-0.56188h1.1234v-6.7303c0-0.26281 0-0.275-0.2869-0.31062-0.2628-0.035937-0.514-0.035937-0.5975-0.035937h-0.239v-0.56188c0.4422 0.011875 1.004 0.035937 1.4343 0.035937 0.4422 0 1.016-0.024062 1.4466-0.035937v0.56188h-0.2391c-0.2512 0-0.5021 0.02375-0.5859 0.035937-0.2987 0.035625-0.2987 0.047813-0.2987 0.31062v6.4194h0.0118l2.6778-7.0291c0.0597-0.15531 0.1075-0.29875 0.3585-0.29875 0.239 0 0.2869 0.15531 0.3469 0.29875l2.7493 7.2203h0.0119v-6.9572h-1.1237v-0.56188c0.4184 0.035937 1.3987 0.035937 1.865 0.035937 0.4662 0 1.4584 0 1.8768-0.035937v0.56188h-1.1237v7.0769h1.1237v0.56188h-2.4865c-0.251 0-0.3825 0-0.49-0.29907l-2.2835-6.0128zm10.533 0.71719c0.2987 0 0.3825 0.01187 0.3825 0.34687 0 1.0638-0.4303 2.4625-2.2832 2.4625-1.5421 0-2.6181-1.0522-2.6181-2.7256 0-1.7334 1.1953-2.7616 2.7616-2.7616 1.6015 0 2.1397 1.2194 2.1397 1.4706 0 0.215-0.2272 0.215-0.2869 0.215-0.2034 0-0.2272-0.05969-0.2869-0.22719-0.2869-0.72906-0.9803-0.98-1.4584-0.98-1.3391 0-1.3391 1.4941-1.3391 2.1994h2.9888zm-2.9888 0.39469c0.0122 0.60937 0.0478 1.9844 1.1 1.9844 1.1356 0 1.1356-1.7097 1.1356-1.9844h-2.2356zm12.812 0.69312c0 0.89656-0.2872 1.6856-1.6141 1.6856-0.8487 0-1.4225-0.46625-1.7453-1.0878-0.2269 1.0519-1.1834 1.0878-1.5659 1.0878-0.8607 0-1.4704-0.49032-1.8169-1.2075h-0.0119v1.2075l-2.0562-0.09563v-0.56187c0.7412 0 0.825 0 0.825-0.46625v-3.6938h-0.825v-0.56188c0.3346 0.011875 1.0518 0.035937 1.5062 0.035937 0.4663 0 1.1716-0.024062 1.5063-0.035937v0.56188h-0.825v2.4984c0 1.3269 0.9206 1.8888 1.5184 1.8888 0.1912 0 0.4303-0.06 0.4303-1.1119v-3.2753h-0.7772v-0.56188c0.4303 0.011875 1.0041 0.035937 1.4703 0.035937 0.5382 0 1.2553-0.024062 1.4944-0.035937v0.56188h-0.825v2.4984c0 1.3269 0.9206 1.8888 1.5184 1.8888 0.1913 0 0.4304-0.06 0.4304-1.1119v-3.2753h-0.7772v-0.56188c0.4303 0.011875 1.0043 0.035937 1.4703 0.035937 0.5381 0 1.2553-0.024062 1.4944-0.035937v0.56188h-0.8247v3.1319z" fill="#e6e6e6"/>
<path d="m888.09 61.817-2.1159-0.09562v-0.56188c0.7412 0 0.825 0 0.825-0.46625v-7.1725h0.5737l0.5738 0.56188c0.2628-0.28688 0.7409-0.63375 1.4462-0.63375 1.4466 0 2.63 0.96844 2.63 2.7256 0 1.8291-1.1834 2.7256-2.4866 2.7256-0.5737 0-1.04-0.17938-1.4462-0.50219v3.4191zm0.0716-4.0288c0.3946 0.51406 0.8609 0.68156 1.2553 0.68156 0.4303 0 0.789-0.28687 0.9325-0.74125 0.1434-0.39437 0.1434-1.0638 0.1434-1.5422 0-0.57375 0-1.1594-0.1794-1.6138-0.1793-0.40625-0.5737-0.69313-1.0162-0.69313-0.4422 0-0.8247 0.23906-1.1356 0.70531v3.2034z" fill="#e6e6e6"/>
<path d="m897.6 56.127c0.2988 0 0.3825 0.01187 0.3825 0.34687 0 1.0638-0.4303 2.4625-2.2831 2.4625-1.5422 0-2.6182-1.0522-2.6182-2.7256 0-1.7334 1.1954-2.7616 2.7616-2.7616 1.6016 0 2.1397 1.2194 2.1397 1.4706 0 0.215-0.2272 0.215-0.2869 0.215-0.2034 0-0.2272-0.05969-0.2868-0.22719-0.2869-0.72906-0.9804-0.98-1.4585-0.98-1.339 0-1.339 1.4941-1.339 2.1994h2.9887zm-2.9887 0.39469c0.0121 0.60937 0.0478 1.9844 1.1 1.9844 1.1356 0 1.1356-1.7097 1.1356-1.9844h-2.2356zm6.0219-0.29907c0 0.89657 0.1794 2.2475 1.2431 2.2475-0.0118-0.01187-0.2272-0.20343-0.2272-0.55 0-0.49 0.3825-0.72906 0.7294-0.72906 0.3466 0 0.7291 0.25094 0.7291 0.72906 0 0.66938-0.7053 0.98032-1.2791 0.98032-0.5497 0-1.0519-0.28688-1.315-1.0878h-0.0119v1.0878l-1.9843-0.09563v-0.56187c0.7412 0 0.825 0 0.825-0.46625v-3.6938h-0.825v-0.56188c0.4184 0.011875 0.9562 0.035937 1.5062 0.035937 0.4544 0 1.2194 0 1.6497-0.035937v0.56188h-1.04v2.1397z" fill="#e6e6e6"/>
<path d="m912.14 55.386h0.9085v0.56187h-0.9085v5.0328c0 0.29875-0.0118 0.3825-0.3465 0.3825-0.1913 0-0.2513 0-0.3706-0.17938l-3.67-5.2359v-0.56187h2.8928v-1.3028h-1.1594v-0.56188c0.4184 0.035937 1.3984 0.035937 1.8647 0.035937 0.4903 0 1.2312 0 1.6975-0.035937v0.56188h-0.9085v1.3028zm-1.3628 4.0288v-3.4669h-2.4387l2.4387 3.4669z" fill="#e6e6e6"/>
<path d="m708.35 226.59h-6.9216l-0.25094-2.8809h0.56188c0.1075 1.315 0.19125 2.3191 1.7213 2.3191h0.58594v-6.9453h-1.6019v-0.56188c0.57375 0.035937 1.8169 0.035937 2.4506 0.035937 0.63343 0 1.8769 0 2.4506-0.035937v0.56188h-1.6019v6.9453h0.57375c1.53 0 1.6138-0.99219 1.7212-2.3191h0.56187l-0.25094 2.8809z" fill="#e6e6e6"/>
<path d="m712.91 221.13c0.2987 0 0.3825 0.01187 0.3825 0.34687 0 1.0638-0.4303 2.4625-2.2832 2.4625-1.5421 0-2.6181-1.0522-2.6181-2.7256 0-1.7334 1.1953-2.7616 2.7616-2.7616 1.6016 0 2.1397 1.2194 2.1397 1.4706 0 0.215-0.2272 0.215-0.2869 0.215-0.2034 0-0.2272-0.05969-0.2869-0.22719-0.2868-0.72906-0.9803-0.98-1.4584-0.98-1.3391 0-1.3391 1.4941-1.3391 2.1994h2.9888zm-2.9888 0.39469c0.01218 0.60937 0.04781 1.9844 1.1 1.9844 1.1356 0 1.1356-1.7097 1.1356-1.9844h-2.2356zm8.6998 0.58562c0 1.1356-0.8847 1.8291-2.355 1.8291-0.3947 0-1.9606-0.02406-1.9606-1.1 0-0.52593 0.4184-0.75312 0.7412-0.75312 0.3706 0 0.7531 0.25125 0.7531 0.75312 0 0.3825-0.2631 0.58594-0.275 0.59782 0.251 0.04781 0.3466 0.07187 0.7054 0.07187 0.7171 0 1.0281-0.57406 1.0281-1.3869v-0.43032c-1.7216-0.03593-3.2875-0.60968-3.2875-1.8647 0-0.99219 1.1237-1.375 2.0203-1.375 0.7291 0 1.2194 0.41844 1.4703 0.95656 0-0.25125 0-0.88469 1.0878-0.88469h0.5022c0.2391 0 0.3825 0 0.3825 0.28688 0 0.23906-0.1197 0.26312-0.2512 0.275-0.5616 0.035937-0.5616 0.19125-0.5616 0.44218v2.5822zm-1.3628-1.9366c0-1.0281-0.7772-1.2909-1.1238-1.2909-0.49 0-0.765 0.49-0.765 0.94438 0 1.3147 1.5778 1.4581 1.8888 1.4822v-1.1356zm11.286 2.0441c0 0.89656-0.2872 1.6856-1.6141 1.6856-0.8487 0-1.4225-0.46625-1.7453-1.0878-0.2269 1.0519-1.1834 1.0878-1.5659 1.0878-0.8607 0-1.4703-0.49032-1.8169-1.2075h-0.0119v1.2075l-2.0562-0.09563v-0.56187c0.7412 0 0.825 0 0.825-0.46625v-3.6938h-0.825v-0.56188c0.3347 0.011875 1.0518 0.035937 1.5062 0.035937 0.4663 0 1.1716-0.024062 1.5063-0.035937v0.56188h-0.825v2.4984c0 1.3269 0.9206 1.8888 1.5184 1.8888 0.1913 0 0.4303-0.06 0.4303-1.1119v-3.2753h-0.7772v-0.56188c0.4303 0.011875 1.0041 0.035937 1.4703 0.035937 0.5382 0 1.2554-0.024062 1.4944-0.035937v0.56188h-0.825v2.4984c0 1.3269 0.9206 1.8888 1.5185 1.8888 0.1912 0 0.4303-0.06 0.4303-1.1119v-3.2753h-0.7772v-0.56188c0.4303 0.011875 1.0044 0.035937 1.4703 0.035937 0.5381 0 1.2553-0.024062 1.4944-0.035937v0.56188h-0.8247v3.1319z" fill="#e6e6e6"/>
<path d="m740.03 221.8h-0.5619c-0.0837-0.86062-0.2869-2.7134-2.08-2.7134h-0.789v7.0769h1.4106v0.56188c-0.49-0.03594-1.6735-0.03594-2.2116-0.03594-0.4781 0-1.6019 0-2.02 0.03594v-0.56188h1.1235v-7.0769h-1.1235v-0.56188h5.8813l0.3706 3.2753zm5.368-0.66937c0.2988 0 0.3825 0.01187 0.3825 0.34687 0 1.0638-0.4303 2.4625-2.2831 2.4625-1.5422 0-2.6181-1.0522-2.6181-2.7256 0-1.7334 1.1953-2.7616 2.7616-2.7616 1.6015 0 2.1396 1.2194 2.1396 1.4706 0 0.215-0.2271 0.215-0.2868 0.215-0.2035 0-0.2272-0.05969-0.2869-0.22719-0.2869-0.72906-0.9803-0.98-1.4584-0.98-1.3391 0-1.3391 1.4941-1.3391 2.1994h2.9887zm-2.9887 0.39469c0.0122 0.60937 0.0478 1.9844 1.1 1.9844 1.1356 0 1.1356-1.7097 1.1356-1.9844h-2.2356zm8.6998 0.58562c0 1.1356-0.8847 1.8291-2.355 1.8291-0.3947 0-1.9607-0.02406-1.9607-1.1 0-0.52593 0.4185-0.75312 0.7413-0.75312 0.3706 0 0.7531 0.25125 0.7531 0.75312 0 0.3825-0.2631 0.58594-0.275 0.59782 0.2509 0.04781 0.3466 0.07187 0.7053 0.07187 0.7172 0 1.0281-0.57406 1.0281-1.3869v-0.43032c-1.7215-0.03593-3.2875-0.60968-3.2875-1.8647 0-0.99219 1.1238-1.375 2.0204-1.375 0.729 0 1.2193 0.41844 1.4703 0.95656 0-0.25125 0-0.88469 1.0878-0.88469h0.5022c0.239 0 0.3825 0 0.3825 0.28688 0 0.23906-0.1197 0.26312-0.2513 0.275-0.5615 0.035937-0.5615 0.19125-0.5615 0.44218v2.5822zm-1.3629-1.9366c0-1.0281-0.7771-1.2909-1.1237-1.2909-0.49 0-0.765 0.49-0.765 0.94438 0 1.3147 1.5778 1.4581 1.8887 1.4822v-1.1356zm5.6918 6.5509v-0.56188c0.7412 0 0.825 0 0.825-0.46625v-2.2475c-0.5382 0.41844-1.0282 0.45438-1.315 0.45438-1.4225 0-2.6182-0.95625-2.6182-2.7256 0-1.8169 1.1716-2.7256 2.4985-2.7256 0.4903 0 0.9562 0.15562 1.3628 0.49031v-0.49031l2.1875 0.071875v0.56188c-0.741 0-0.8247 0-0.8247 0.46625v7.2681l-2.1159-0.09562zm0.7531-7.0769c-0.275-0.43031-0.7172-0.765-1.255-0.765-0.4425 0-0.7891 0.29875-0.9444 0.75313-0.1316 0.40625-0.1316 1.1116-0.1316 1.53 0 0.47812 0 1.1116 0.1435 1.53 0.1794 0.47812 0.5737 0.77718 1.0637 0.77718 0.3707 0 0.801-0.17937 1.1238-0.63375v-3.1916zm7.2401 1.4822c0.2987 0 0.3825 0.01187 0.3825 0.34687 0 1.0638-0.4303 2.4625-2.2832 2.4625-1.5421 0-2.6181-1.0522-2.6181-2.7256 0-1.7334 1.1953-2.7616 2.7616-2.7616 1.6015 0 2.1397 1.2194 2.1397 1.4706 0 0.215-0.2272 0.215-0.2869 0.215-0.2034 0-0.2272-0.05969-0.2869-0.22719-0.2869-0.72906-0.9803-0.98-1.4584-0.98-1.3391 0-1.3391 1.4941-1.3391 2.1994h2.9888zm-2.9888 0.39469c0.0122 0.60937 0.0478 1.9844 1.1 1.9844 1.1356 0 1.1356-1.7097 1.1356-1.9844h-2.2356zm6.022-0.29907c0 0.89657 0.1793 2.2475 1.2431 2.2475-0.0119-0.01187-0.2272-0.20343-0.2272-0.55 0-0.49 0.3825-0.72906 0.7294-0.72906 0.3465 0 0.729 0.25094 0.729 0.72906 0 0.66938-0.7053 0.98032-1.279 0.98032-0.5497 0-1.0519-0.28688-1.315-1.0878h-0.0119v1.0878l-1.9844-0.09563v-0.56187c0.7413 0 0.825 0 0.825-0.46625v-3.6938h-0.825v-0.56188c0.4185 0.011875 0.9563 0.035937 1.5063 0.035937 0.4544 0 1.2194 0 1.6497-0.035937v0.56188h-1.04v2.1397z" fill="#e6e6e6"/>
<path d="m778.62 221.17h-0.5618c-0.036-0.28687-0.1197-0.8725-0.2632-1.0638-0.0597-0.09562-1.0759-0.09562-1.0878-0.09562h-1.4344c0.3229 0.28687 1.0879 1.04 1.4107 1.3269 0.239 0.22719 0.8606 0.75313 1.0997 0.98 0.5856 0.59781 0.8368 1.1597 0.8368 1.7694 0 1.315-1.0759 2.2594-2.5343 2.2594-1.2672 0-2.2354-0.81281-2.2354-1.8172 0-0.70531 0.5738-0.88437 0.8607-0.88437 0.3825 0 0.8606 0.26281 0.8606 0.86062 0 0.49-0.3106 0.78875-0.7291 0.86063 0.3225 0.35875 0.7769 0.41844 0.98 0.41844 1.0163 0 1.1478-1.2075 1.1478-1.6975 0-0.66938-0.2272-1.4944-1.1118-2.5941l-1.8888-2.3669c-0.1194-0.14344-0.1194-0.1675-0.1194-0.39438v-0.21531h4.3991l0.3706 2.6537z" fill="#e6e6e6"/>
<path d="m446.63 391.52c0 0.22719 0 0.33469-0.215 0.33469-0.10751 0-0.11969-0.01188-0.39438-0.27469l-0.32281-0.32281c-0.46625 0.39437-1.0162 0.5975-1.7094 0.5975-1.4944 0-2.3312-1.0519-2.3312-2.3906 0-0.70531 0.25094-1.2312 0.57375-1.6259 0.47813-0.57375 0.90875-0.66937 1.9606-0.93218 0.275-0.06 0.74125-0.17938 0.81281-0.20344 0.58563-0.26281 0.78906-0.86063 0.78906-1.3506 0-0.58593-0.23906-1.3987-1.2075-1.3987-0.84875 0-2.2831 0.34656-2.3669 2.0203-0.01188 0.215-0.01188 0.275-0.275 0.275-0.28688 0-0.28688-0.07188-0.28688-0.34688v-2.1756c0-0.22719 0-0.33469 0.21531-0.33469 0.1075 0 0.11938 0.011875 0.39438 0.275l0.33469 0.33469c0.69344-0.52594 1.5303-0.60969 1.9962-0.60969 1.5541 0 2.355 1.1478 2.355 2.5581 0 0.7175-0.22719 1.2672-0.52594 1.6738-0.50187 0.68125-0.96812 0.78875-1.9844 1.04-0.33469 0.08375-0.74125 0.17938-0.8725 0.22719-0.40657 0.15531-0.75313 0.60969-0.75313 1.1953 0 0.57375 0.28688 1.255 1.1834 1.255 1.7572 0 1.9962-1.6853 2.0559-2.1397 0.03593-0.17938 0.09562-0.20313 0.28687-0.20313 0.28688 0 0.28688 0.05969 0.28688 0.33469v2.1875zm5.8535-5.3912c0.2987 0 0.3825 0.01187 0.3825 0.34687 0 1.0638-0.4303 2.4625-2.2832 2.4625-1.5422 0-2.6181-1.0522-2.6181-2.7256 0-1.7334 1.1953-2.7616 2.7616-2.7616 1.6015 0 2.1397 1.2194 2.1397 1.4706 0 0.215-0.2272 0.215-0.2869 0.215-0.2034 0-0.2272-0.05969-0.2869-0.22719-0.2869-0.72906-0.9803-0.98-1.4584-0.98-1.3391 0-1.3391 1.4941-1.3391 2.1994h2.9888zm-2.9888 0.39469c0.01219 0.60937 0.04781 1.9844 1.1 1.9844 1.1356 0 1.1356-1.7097 1.1356-1.9844h-2.2356zm7.2892 1.8766c-0.1079-0.09563-0.2391-0.28688-0.2391-0.56188 0-0.52593 0.4181-0.75312 0.7409-0.75312 0.3707 0 0.7532 0.25125 0.7532 0.75312 0 0.78907-0.8844 1.1-1.8288 1.1-1.5781 0-2.6062-1.0878-2.6062-2.7616 0-1.7691 1.1596-2.7256 2.5703-2.7256 1.6256 0 1.9962 1.3391 1.9962 1.4706 0 0.16719-0.1675 0.16719-0.2869 0.16719-0.1793 0-0.2271-0.01188-0.275-0.15531-0.0837-0.23907-0.3465-1.0041-1.2312-1.0041-0.4303 0-0.8009 0.26281-1.0159 0.72907-0.2154 0.46625-0.2272 1.0041-0.2272 1.5778 0 0.74125 0 2.2238 1.1115 2.2238 0.2153 0 0.3469-0.02406 0.5382-0.06zm4.0816-0.13156h1.4463v0.56187h-1.4463v2.2834h-0.5619c-0.0122-1.0044-0.3468-2.3669-1.554-2.4147v-0.43062h0.7531v-3.2753c0-1.2909 0.9681-1.5422 1.7453-1.5422 0.9084 0 1.255 0.81312 1.255 1.5303v0.6575h-0.5619v-0.64563c0-0.64562-0.1912-1.0637-0.5378-1.0637-0.5378 0-0.5378 0.77688-0.5378 1.0041v3.335zm4.8692 2.63c0 0.52593-0.4303 0.9325-0.9325 0.9325-0.514 0-0.9325-0.41844-0.9325-0.9325 0-0.51407 0.4185-0.9325 0.9325-0.9325 0.5022 0 0.9325 0.40656 0.9325 0.9325zm-2.1997-2.0919v-0.56187c0.7053 0 0.7891 0 0.7891-0.46625v-3.6938h-0.8247v-0.56188c0.3703 0.011875 0.9563 0.035937 1.4581 0.035937 0.3588 0 0.9685-0.024062 1.3988-0.035937v0.56188h-0.7413v4.8175l-2.08-0.09563zm8.6049-2.6659c0 1.6856-1.0519 2.7975-2.6538 2.7975-1.5422 0-2.6418-1.0641-2.6418-2.7975 0-1.7212 1.1237-2.6897 2.6418-2.6897 1.5778 0 2.6538 1.0162 2.6538 2.6897zm-2.6419-2.2112c-0.4422 0-0.8966 0.26281-1.0281 0.78875-0.0956 0.39469-0.0956 1.1238-0.0956 1.5422 0 0.56188 0 1.1356 0.1078 1.5181 0.1193 0.45437 0.5618 0.72937 1.004 0.72937 0.5141 0 0.9085-0.34687 1.0163-0.72937 0.1075-0.39438 0.1075-0.96813 0.1075-1.5181 0-0.56187 0-1.1834-0.1197-1.59-0.1194-0.46625-0.5619-0.74094-0.9922-0.74094zm8.7748 3.2872c0 0.89656-0.2869 1.6856-1.6138 1.6856-0.8606 0-1.4703-0.49032-1.8169-1.2075h-0.0118v1.2075l-2.0563-0.09563v-0.56187c0.7413 0 0.825 0 0.825-0.46625v-3.6938h-0.825v-0.56188c0.3347 0.011875 1.0519 0.035937 1.5063 0.035937 0.4662 0 1.1715-0.024062 1.5062-0.035937v0.56188h-0.825v2.4984c0 1.3269 0.9206 1.8888 1.5185 1.8888 0.1912 0 0.4303-0.06 0.4303-1.1119v-3.2753h-0.7772v-0.56188c0.4303 0.011875 1.004 0.035937 1.4703 0.035937 0.5381 0 1.2553-0.024062 1.4944-0.035937v0.56188h-0.825v3.1319z" fill="#e6e6e6"/>
<path d="m489.76 386.8h-0.5619c-0.0837-0.86062-0.2868-2.7134-2.08-2.7134h-0.789v7.0769h1.4106v0.56188c-0.49-0.03594-1.6734-0.03594-2.2116-0.03594-0.4781 0-1.6018 0-2.02 0.03594v-0.56188h1.1235v-7.0769h-1.1235v-0.56188h5.8813l0.3706 3.2753zm5.3681-0.66937c0.2987 0 0.3825 0.01187 0.3825 0.34687 0 1.0638-0.4304 2.4625-2.2832 2.4625-1.5422 0-2.6181-1.0522-2.6181-2.7256 0-1.7334 1.1953-2.7616 2.7616-2.7616 1.6015 0 2.1397 1.2194 2.1397 1.4706 0 0.215-0.2272 0.215-0.2869 0.215-0.2035 0-0.2272-0.05969-0.2869-0.22719-0.2869-0.72906-0.9803-0.98-1.4584-0.98-1.3391 0-1.3391 1.4941-1.3391 2.1994h2.9888zm-2.9888 0.39469c0.0122 0.60937 0.0478 1.9844 1.1 1.9844 1.1356 0 1.1356-1.7097 1.1356-1.9844h-2.2356zm8.6998 0.58562c0 1.1356-0.8847 1.8291-2.355 1.8291-0.3947 0-1.9607-0.02406-1.9607-1.1 0-0.52593 0.4185-0.75312 0.7413-0.75312 0.3706 0 0.7531 0.25125 0.7531 0.75312 0 0.3825-0.2631 0.58594-0.275 0.59782 0.251 0.04781 0.3466 0.07187 0.7053 0.07187 0.7172 0 1.0282-0.57406 1.0282-1.3869v-0.43032c-1.7216-0.03593-3.2875-0.60968-3.2875-1.8647 0-0.99219 1.1237-1.375 2.0203-1.375 0.729 0 1.2194 0.41844 1.4703 0.95656 0-0.25125 0-0.88469 1.0878-0.88469h0.5022c0.239 0 0.3825 0 0.3825 0.28688 0 0.23906-0.1197 0.26312-0.2513 0.275-0.5615 0.035937-0.5615 0.19125-0.5615 0.44218v2.5822zm-1.3628-1.9366c0-1.0281-0.7772-1.2909-1.1238-1.2909-0.49 0-0.765 0.49-0.765 0.94438 0 1.3147 1.5778 1.4581 1.8888 1.4822v-1.1356zm5.6917 6.5509v-0.56188c0.7412 0 0.825 0 0.825-0.46625v-2.2475c-0.5381 0.41844-1.0281 0.45438-1.315 0.45438-1.4225 0-2.6181-0.95625-2.6181-2.7256 0-1.8169 1.1715-2.7256 2.4984-2.7256 0.4903 0 0.9562 0.15562 1.3628 0.49031v-0.49031l2.1875 0.071875v0.56188c-0.7409 0-0.8247 0-0.8247 0.46625v7.2681l-2.1159-0.09562zm0.7531-7.0769c-0.275-0.43031-0.7172-0.765-1.255-0.765-0.4425 0-0.7891 0.29875-0.9444 0.75313-0.1315 0.40625-0.1315 1.1116-0.1315 1.53 0 0.47812 0 1.1116 0.1434 1.53 0.1794 0.47812 0.5738 0.77718 1.0638 0.77718 0.3706 0 0.8009-0.17937 1.1237-0.63375v-3.1916zm7.2401 1.4822c0.2987 0 0.3825 0.01187 0.3825 0.34687 0 1.0638-0.4303 2.4625-2.2831 2.4625-1.5422 0-2.6182-1.0522-2.6182-2.7256 0-1.7334 1.1953-2.7616 2.7616-2.7616 1.6016 0 2.1397 1.2194 2.1397 1.4706 0 0.215-0.2272 0.215-0.2869 0.215-0.2034 0-0.2272-0.05969-0.2869-0.22719-0.2868-0.72906-0.9803-0.98-1.4584-0.98-1.3391 0-1.3391 1.4941-1.3391 2.1994h2.9888zm-2.9888 0.39469c0.0122 0.60937 0.0478 1.9844 1.1 1.9844 1.1357 0 1.1357-1.7097 1.1357-1.9844h-2.2357zm6.022-0.29907c0 0.89657 0.1794 2.2475 1.2431 2.2475-0.0119-0.01187-0.2272-0.20343-0.2272-0.55 0-0.49 0.3825-0.72906 0.7294-0.72906 0.3466 0 0.7291 0.25094 0.7291 0.72906 0 0.66938-0.7054 0.98032-1.2791 0.98032-0.5497 0-1.0519-0.28688-1.315-1.0878h-0.0119v1.0878l-1.9843-0.09563v-0.56187c0.7412 0 0.8249 0 0.8249-0.46625v-3.6938h-0.8249v-0.56188c0.4184 0.011875 0.9562 0.035937 1.5062 0.035937 0.4544 0 1.2194 0 1.6497-0.035937v0.56188h-1.04v2.1397z" fill="#e6e6e6"/>
</g>
</svg>
