<?xml version="1.0" standalone="no"?>
<!DOCTYPE svg PUBLIC "-//W3C//DTD SVG 20010904//EN"
 "http://www.w3.org/TR/2001/REC-SVG-20010904/DTD/svg10.dtd">
<svg version="1.0" xmlns="http://www.w3.org/2000/svg"
 width="24.000000pt" height="24.000000pt" viewBox="0 0 24.000000 24.000000"
 preserveAspectRatio="xMidYMid meet">

<g transform="translate(0.000000,24.000000) scale(0.100000,-0.100000)"
fill="#000000" stroke="none">
<path d="M160 205 c-14 -17 -70 -21 -70 -5 0 6 -13 10 -30 10 -27 0 -30 -3
-30 -30 0 -27 3 -30 30 -30 17 0 30 5 30 10 0 14 54 12 68 -2 16 -16 15 -56
-2 -74 -18 -17 -50 -18 -75 -2 -24 15 -51 4 -51 -22 0 -26 27 -37 51 -22 23
15 69 16 69 2 0 -5 14 -10 30 -10 27 0 30 3 30 30 0 17 -4 30 -10 30 -16 0
-11 52 7 72 15 17 15 19 -2 38 -22 24 -29 25 -45 5z m-90 -25 c0 -5 -4 -10
-10 -10 -5 0 -10 5 -10 10 0 6 5 10 10 10 6 0 10 -4 10 -10z m120 0 c0 -5 -4
-10 -10 -10 -5 0 -10 5 -10 10 0 6 5 10 10 10 6 0 10 -4 10 -10z m-120 -120
c0 -5 -4 -10 -10 -10 -5 0 -10 5 -10 10 0 6 5 10 10 10 6 0 10 -4 10 -10z
m120 0 c0 -5 -4 -10 -10 -10 -5 0 -10 5 -10 10 0 6 5 10 10 10 6 0 10 -4 10
-10z"/>
</g>
</svg>
