<?xml version="1.0" encoding="UTF-8" standalone="no"?>
<svg
   xmlns:dc="http://purl.org/dc/elements/1.1/"
   xmlns:cc="http://creativecommons.org/ns#"
   xmlns:rdf="http://www.w3.org/1999/02/22-rdf-syntax-ns#"
   xmlns:svg="http://www.w3.org/2000/svg"
   xmlns="http://www.w3.org/2000/svg"
   xmlns:sodipodi="http://sodipodi.sourceforge.net/DTD/sodipodi-0.dtd"
   xmlns:inkscape="http://www.inkscape.org/namespaces/inkscape"
   width="582.54089"
   height="334.0835"
   id="svg2"
   sodipodi:version="0.32"
   inkscape:version="1.0.2 (e86c870879, 2021-01-15)"
   version="1.0"
   sodipodi:docname="logo.svg"
   inkscape:output_extension="org.inkscape.output.svg.inkscape">
  <sodipodi:namedview
     id="base"
     pagecolor="#ffffff"
     bordercolor="#666666"
     borderopacity="1.0"
     inkscape:pageopacity="0.0"
     inkscape:pageshadow="2"
     inkscape:zoom="0.78326917"
     inkscape:cx="221.01525"
     inkscape:cy="199.56411"
     inkscape:document-units="px"
     inkscape:current-layer="layer1"
     inkscape:window-width="1680"
     inkscape:window-height="1013"
     inkscape:window-x="1366"
     inkscape:window-y="0"
     showgrid="true"
     showguides="true"
     inkscape:guide-bbox="true"
     inkscape:window-maximized="1"
     fit-margin-top="0"
     fit-margin-left="0"
     fit-margin-right="0"
     fit-margin-bottom="0"
     inkscape:document-rotation="0" />
  <defs
     id="defs4" />
  <metadata
     id="metadata7">
    <rdf:RDF>
      <cc:Work
         rdf:about="">
        <dc:format>image/svg+xml</dc:format>
        <dc:type
           rdf:resource="http://purl.org/dc/dcmitype/StillImage" />
      </cc:Work>
    </rdf:RDF>
  </metadata>
  <g
     inkscape:label="Camada 1"
     id="layer1"
     transform="translate(-81.932303,-569.57303)"
     inkscape:groupmode="layer">
    <g
       id="g844">
      <path
         style="color:#000000;fill:#e8cca8;fill-opacity:1;fill-rule:evenodd;stroke:#fffaf0;stroke-width:3.75;stroke-linecap:butt;stroke-linejoin:miter;stroke-miterlimit:4;stroke-opacity:1;stroke-dasharray:none;stroke-dashoffset:0;marker:none;visibility:visible;display:inline;overflow:visible;enable-background:accumulate"
         d="m 120.21875,84.21875 c -63.521676,0 -115.03125,56.89017 -115.03125,127.0625 l 9.875,0 c 0.01533,-50.15475 36.813888,-90.8125 82.21875,-90.8125 45.40486,0 82.23467,40.65775 82.25,90.8125 l 55.6875,0 c 0,-70.17233 -51.47832,-127.0625 -115,-127.0625 z"
         transform="translate(81.932303,569.66678)"
         id="path2166-5"
         inkscape:connector-curvature="0" />
      <path
         style="color:#000000;fill:#daa520;fill-opacity:1;fill-rule:evenodd;stroke:#fffaf0;stroke-width:3.66959143;stroke-linecap:butt;stroke-linejoin:miter;stroke-miterlimit:4;stroke-opacity:1;stroke-dasharray:none;stroke-dashoffset:0;marker:none;visibility:visible;display:inline;overflow:visible;enable-background:accumulate"
         d="M 146.59375,42.625 C 66.847755,42.625 2.1875,118.13971 2.1875,211.3125 l 3,0 C 5.1875,141.14017 56.697074,84.25 120.21875,84.25 c 63.52168,0 115,56.89017 115,127.0625 l 55.75,0 c 0,-93.17279 -64.629,-168.6875 -144.375,-168.6875 z"
         transform="translate(81.932303,569.66678)"
         id="path2164-2"
         inkscape:connector-curvature="0" />
      <path
         style="color:#000000;fill:#daa520;fill-opacity:1;fill-rule:evenodd;stroke:#fffaf0;stroke-width:3.75;stroke-linecap:butt;stroke-linejoin:miter;stroke-miterlimit:4;stroke-opacity:1;stroke-dasharray:none;stroke-dashoffset:0;marker:none;visibility:visible;display:inline;overflow:visible;enable-background:accumulate"
         d="m 218.15625,7.8125 c -0.96204,0 -1.91646,0.015014 -2.875,0.03125 75.41547,22.342797 131.40189,104.93232 131.4375,203.4375 l 55.625,0 C 402.34375,98.901862 319.88477,7.8125 218.15625,7.8125 z"
         transform="translate(81.932303,569.66678)"
         id="path2160-2"
         inkscape:connector-curvature="0" />
      <path
         style="color:#000000;fill:#e8cca8;fill-opacity:1;fill-rule:evenodd;stroke:#fffaf0;stroke-width:3.75;stroke-linecap:butt;stroke-linejoin:miter;stroke-miterlimit:4;stroke-opacity:1;stroke-dasharray:none;stroke-dashoffset:0;marker:none;visibility:visible;display:inline;overflow:visible;enable-background:accumulate"
         d="m 174.3125,1.78125 c -95.226091,0 -172.4375,93.792482 -172.4375,209.5 l 0.3125,0 C 2.2165528,118.13733 66.86568,42.625 146.59375,42.625 c 79.72807,0 144.34594,75.51234 144.375,168.65625 l 55.75,0 c 0,-115.707518 -77.18016,-209.5 -172.40625,-209.5 z"
         id="path2162-5"
         inkscape:connector-curvature="0"
         transform="translate(81.932303,569.66678)" />
      <path
         style="color:#000000;fill:#cd853f;fill-opacity:1;fill-rule:evenodd;stroke:#fffaf0;stroke-width:4.01933384;stroke-linecap:butt;stroke-linejoin:miter;stroke-miterlimit:4;stroke-opacity:1;stroke-dasharray:none;stroke-dashoffset:0;marker:none;visibility:visible;display:inline;overflow:visible;enable-background:accumulate"
         d="m 408.78125,84.09375 0.0312,3.53125 c 30.22249,30.63187 49.19358,74.60197 49.25,123.46875 l 122.46875,0.0625 c -89.74897,-88.76272 -171.75,-127.0625 -171.75,-127.0625 z"
         transform="translate(81.932303,569.66678)"
         id="path2170"
         inkscape:connector-curvature="0" />
      <path
         style="color:#000000;fill:#e8cca8;fill-opacity:1;fill-rule:evenodd;stroke:#fffaf0;stroke-width:3.75;stroke-linecap:butt;stroke-linejoin:miter;stroke-miterlimit:4;stroke-opacity:1;stroke-dasharray:none;stroke-dashoffset:0;marker:none;visibility:visible;display:inline;overflow:visible;enable-background:accumulate"
         d="m 323.78125,44.59375 c 47.49901,36.795689 78.55309,97.73615 78.5625,166.6875 l 55.71875,0 c 0,-86.09717 -58.68638,-157.035999 -134.28125,-166.6875 z"
         id="path3145-4"
         inkscape:connector-curvature="0"
         transform="translate(81.932303,569.66678)" />
    </g>
    <path
       transform="scale(1.24106,0.8057628)"
       style="font-size:178.71264648px;font-style:normal;font-variant:normal;font-weight:bold;font-stretch:normal;text-align:start;line-height:125%;writing-mode:lr-tb;text-anchor:start;fill:#b8860b;fill-opacity:1;stroke:#fffaf0;stroke-width:3;stroke-linecap:butt;stroke-linejoin:miter;stroke-miterlimit:4;stroke-opacity:1;font-family:Century Gothic"
       d="m 193.77033,1008.9822 -17.19062,17.0161 c -10.87877,-11.5185 -23.56084,-17.2778 -38.04625,-17.2779 -12.62397,10e-5 -23.19721,4.1887 -31.71975,12.5657 -8.522625,8.3773 -12.783917,18.5578 -12.783884,30.5417 -3.3e-5,12.3913 4.421239,22.8918 13.263834,31.5016 8.84249,8.6099 19.75024,12.9148 32.72326,12.9148 8.43524,0 15.54709,-1.7743 21.33557,-5.323 5.78827,-3.5486 10.45679,-9.1043 14.00555,-16.667 l -37.17362,0 0,-22.9499 64.5739,0 0.17453,5.4102 c -1.5e-4,11.2278 -2.90888,21.8737 -8.72621,31.9379 -5.81759,10.0642 -13.35121,17.7433 -22.60087,23.0372 -9.24987,5.2939 -20.09944,7.9408 -32.54873,7.9408 -13.32207,0 -25.20424,-2.8942 -35.64655,-8.6825 -10.442384,-5.7884 -18.703182,-14.0347 -24.782413,-24.7388 -6.079267,-10.7041 -9.118891,-22.2518 -9.118882,-34.6431 -9e-6,-16.9869 5.613843,-31.7632 16.841572,-44.3291 13.321965,-14.95074 30.658003,-22.42618 52.008173,-22.42631 11.16945,1.3e-4 21.6118,2.06533 31.32707,6.1956 8.20251,3.4906 16.23061,9.48261 24.08432,17.97601 l 0,0 z m 124.08661,66.8427 -76.5288,0 c 1.10529,6.7483 4.05765,12.1149 8.8571,16.0998 4.79936,3.985 10.92224,5.9775 18.36865,5.9775 8.90066,0 16.55063,-3.1123 22.94992,-9.3371 l 20.07027,9.4243 c -5.00312,7.0974 -10.99511,12.3476 -17.97598,15.7508 -6.98104,3.4033 -15.27093,5.1049 -24.86968,5.1049 -14.89277,0 -27.02218,-4.6976 -36.38827,-14.0928 -9.36614,-9.3952 -14.0492,-21.1611 -14.04919,-35.2975 -1e-5,-14.4855 4.66851,-26.5131 14.00556,-36.0829 9.33701,-9.5696 21.04465,-14.3545 35.12297,-14.3546 14.95082,10e-5 27.10932,4.785 36.47553,14.3546 9.36602,9.5698 14.04908,22.2083 14.04919,37.9154 l -0.0873,4.5376 z m -23.90979,-18.7614 c -1.5708,-5.2938 -4.6686,-9.5987 -9.29341,-12.9147 -4.62496,-3.3159 -9.99157,-4.9739 -16.09985,-4.974 -6.63196,10e-5 -12.44942,1.8617 -17.4524,5.5848 -3.14147,2.3271 -6.0502,6.4284 -8.72621,12.3039 l 51.57187,0 z m -61.607,-52.968 26.17861,-24.69516 19.11039,0 26.00408,24.69516 -26.00408,0 -9.4243,-11.43133 -9.68609,11.43133 -26.17861,0 z m 107.50683,112.3062 0,-128.36242 20.15753,0 c 11.69307,1.3e-4 20.24474,0.7564 25.65504,2.26881 7.67899,2.03624 13.78733,5.81759 18.32503,11.34411 4.53754,5.5267 6.80635,12.0422 6.80643,19.5467 -8e-5,4.8867 -1.03268,9.3225 -3.0978,13.3074 -2.06528,3.9851 -5.42487,7.7228 -10.07876,11.2132 7.79533,3.6651 13.49644,8.2463 17.10336,13.7438 3.60673,5.4975 5.41015,11.9985 5.41024,19.503 -9e-5,7.2137 -1.86168,13.7874 -5.58477,19.7212 -3.72326,5.9339 -8.52267,10.3697 -14.39823,13.3075 -5.87572,2.9378 -13.99108,4.4067 -24.34611,4.4067 l -35.95196,0 z m 24.43337,-105.0635 0,27.0513 5.32298,0 c 5.93377,10e-5 10.3405,-1.2507 13.2202,-3.7523 2.87959,-2.5014 4.31941,-5.9046 4.31947,-10.2097 -6e-5,-4.0139 -1.36716,-7.199 -4.10131,-9.5551 -2.73427,-2.356 -6.89375,-3.5341 -12.47847,-3.5342 l -6.28287,0 z m 0,48.8668 0,32.8978 6.10834,0 c 10.12234,0 16.94332,-1.2798 20.46295,-3.8396 3.5195,-2.5596 5.27928,-6.2828 5.27935,-11.1695 -7e-5,-5.5266 -2.06527,-9.8896 -6.1956,-13.0893 -4.13047,-3.1996 -10.99507,-4.7994 -20.59384,-4.7994 l -5.0612,0 z m 80.89191,-72.16572 25.91682,0 c 14.19457,1.3e-4 24.30241,1.26543 30.32356,3.7959 6.021,2.53072 10.86404,6.73384 14.52913,12.60932 3.66491,5.8758 5.49741,12.8277 5.4975,20.8557 -9e-5,8.4354 -2.02166,15.4891 -6.06471,21.161 -4.04322,5.6721 -10.13701,9.9625 -18.28139,12.8712 l 30.36718,57.0693 -26.70218,0 -28.88373,-54.3642 -2.26881,0 0,54.3642 -24.43337,0 0,-128.36242 z m 24.43337,50.17572 7.67905,0 c 7.79536,0 13.16197,-1.018 16.09985,-3.0542 2.93775,-2.0361 4.40666,-5.4102 4.40673,-10.1224 -7e-5,-2.7923 -0.72725,-5.2211 -2.18155,-7.2864 -1.45443,-2.0651 -3.40328,-3.5486 -5.84655,-4.4504 -2.4434,-0.9016 -6.92285,-1.3524 -13.43836,-1.3525 l -6.71917,0 0,26.2659 z"
       id="text2191"
       inkscape:connector-curvature="0" />
    <path
       style="color:#000000;fill:#cd853f;fill-opacity:1;fill-rule:evenodd;stroke:#fffaf0;stroke-width:4.41624308;stroke-linecap:butt;stroke-linejoin:miter;stroke-miterlimit:4;stroke-opacity:1;stroke-dasharray:none;stroke-dashoffset:0;marker:none;visibility:visible;display:inline;overflow:visible;enable-background:accumulate"
       id="path2168-6"
       sodipodi:cx="192.14285"
       sodipodi:cy="771.64789"
       sodipodi:type="arc"
       d="m 302.85714,771.64789 a 110.71429,93.571426 0 1 1 -221.428574,-10e-6 l 110.714284,10e-6 z"
       sodipodi:start="0"
       sodipodi:end="3.1415927"
       transform="matrix(0.7427217,0,0,-0.9708016,36.512673,1530.065)"
       sodipodi:rx="110.71429"
       sodipodi:ry="93.571426" />
  </g>
</svg>
