<?xml version="1.0" encoding="UTF-8"?>
<svg class="mw-100" width="226.68pt" version="1.1" viewBox="0 -216.3 226.68 216.3" xmlns="http://www.w3.org/2000/svg">
<g transform="scale(1 -1)">
<path d="m149.88 179.77c0-20.176-16.359-36.536-36.535-36.536-20.184 0-36.539 16.36-36.539 36.536 0 20.179 16.356 36.539 36.539 36.539 20.176 0 36.535-16.36 36.535-36.539" fill="#404040"/>
<path d="m225.18 125.06c0-20.179-16.36-36.539-36.539-36.539-20.18 0-36.535 16.36-36.535 36.539 0 20.18 16.355 36.54 36.535 36.54 20.179 0 36.539-16.36 36.539-36.54" fill="#404040"/>
<path d="m196.41 36.543c0-20.18-16.359-36.539-36.539-36.539s-36.535 16.359-36.535 36.539 16.355 36.539 36.535 36.539 36.539-16.359 36.539-36.539" fill="#404040"/>
<path d="m103.34 36.543c0-20.18-16.36-36.539-36.539-36.539s-36.539 16.359-36.539 36.539 16.359 36.539 36.539 36.539 36.539-16.359 36.539-36.539" fill="#404040"/>
<path d="m74.574 125.06c0-20.179-16.355-36.539-36.535-36.539s-36.539 16.36-36.539 36.539c0 20.18 16.359 36.54 36.539 36.54s36.535-16.36 36.535-36.54" fill="#404040"/>
<path d="m105.69 179.6c0-1.6734-1.1356-2.6538-2.2594-2.6538-0.71719 0-1.9603 0.47812-1.9603 2.57v4.5906c0 0.44219 0.03594 0.56157 0.89656 0.56157h0.23907v0.34687c-0.28688-0.02406-1.2672-0.02406-1.6138-0.02406-0.35875 0-1.3391 0-1.6259 0.02406v-0.34687h0.23906c0.86094 0 0.89657-0.11938 0.89657-0.56157v-4.5188c0-1.7334 1.3869-2.9884 2.905-2.9884 1.6616 0 2.6059 1.6256 2.6059 2.8209v4.5188c0 0.72907 0.92063 0.72907 1.1356 0.72907v0.34687c-0.31063-0.02406-0.95625-0.02406-1.2909-0.02406-0.34687 0-0.99219 0-1.3031 0.02406v-0.34687c1.1356 0 1.1356-0.56157 1.1356-0.88438v-4.1841zm7.281 0.15531c0 1.1119 0 1.4466-0.275 1.8291-0.3469 0.46625-0.9085 0.53813-1.315 0.53813-1.1597 0-1.6138-0.99219-1.7094-1.2312h-0.0119v1.2312l-1.6259-0.13156v-0.34688c0.81281 0 0.9084-0.08344 0.9084-0.66937v-3.2394c0-0.53812-0.13121-0.53812-0.9084-0.53812v-0.34656c0.31094 0.024063 0.9562 0.024063 1.2909 0.024063 0.3469 0 0.9922 0 1.3032-0.024063v0.34656c-0.765 0-0.9085 0-0.9085 0.53812v2.2234c0 1.255 0.8247 1.9247 1.566 1.9247 0.7412 0 0.9084-0.60969 0.9084-1.3391v-2.8091c0-0.53812-0.1316-0.53812-0.9084-0.53812v-0.34656c0.3109 0.024063 0.9562 0.024063 1.2909 0.024063 0.3469 0 0.9922 0 1.3031-0.024063v0.34656c-0.5978 0-0.8965 0-0.9084 0.35875v2.1994zm3.2639 4.4591c0 0.31063-0.2509 0.58563-0.5856 0.58563-0.311 0-0.5741-0.25094-0.5741-0.57375 0-0.35844 0.2872-0.58563 0.5741-0.58563 0.3703 0 0.5856 0.31063 0.5856 0.57375zm-1.6497-2.2234v-0.34688c0.765 0 0.8728-0.07156 0.8728-0.65719v-3.2516c0-0.53812-0.1315-0.53812-0.9087-0.53812v-0.34656c0.3347 0.024063 0.9087 0.024063 1.2553 0.024063 0.1315 0 0.8247 0 1.2312-0.024063v0.34656c-0.7768 0-0.8247 0.06-0.8247 0.52594v4.3994l-1.6259-0.13156zm4.8299-0.33469h1.6853v0.34656h-1.6853v2.1997h-0.2631c-0.0119-1.1238-0.4422-2.2712-1.53-2.3072v-0.23906h1.0159v-3.3234c0-1.3269 0.8847-1.6019 1.5182-1.6019 0.7531 0 1.1475 0.74125 1.1475 1.6019v0.68156h-0.2628v-0.6575c0-0.86062-0.3466-1.3628-0.8129-1.3628-0.8128 0-0.8128 1.1119-0.8128 1.315v3.3472z" fill="#e6e6e6"/>
<path d="m126.47 180.84c0.3228 0.80062 0.8847 0.81281 1.1119 0.81281v0.34656c-0.3466-0.02375-0.5141-0.02375-0.8966-0.02375-0.275 0-0.2988 0-0.9681 0.02375v-0.34656c0.4422-0.02406 0.5497-0.29906 0.5497-0.51406 0-0.1075-0.0238-0.1675-0.0716-0.28688l-1.2194-3.0125-1.3269 3.2516c-0.0718 0.16719-0.0718 0.23907-0.0718 0.25094 0 0.31094 0.4184 0.31094 0.6575 0.31094v0.34656c-0.3107-0.02375-0.8966-0.02375-1.2313-0.02375-0.4544 0-0.4781 0-1.1594 0.02375v-0.34656c0.6932 0 0.7888-0.06 0.9444-0.43031l1.781-4.3753c-0.526-1.2672-0.526-1.2909-0.5738-1.3866-0.2031-0.35875-0.5259-0.81312-1.0637-0.81312-0.3707 0-0.5979 0.21531-0.5979 0.21531s0.4185 0.04781 0.4185 0.46625c0 0.28687-0.2272 0.44219-0.4425 0.44219-0.2031 0-0.4541-0.11938-0.4541-0.46625 0-0.45407 0.4422-0.89657 1.076-0.89657 0.6693 0 1.1593 0.58594 1.4703 1.3391l2.0678 5.0925z" fill="#e6e6e6"/>
<path d="m169.08 129.08v-0.34687h0.23906c0.86062 0 0.89656-0.11938 0.89656-0.56157v-6.3478c0-0.44219-0.03594-0.56188-0.89656-0.56188h-0.23906v-0.34656h4.4947c1.5422 0 2.6178 1.04 2.6178 2.1875 0 0.96844-0.8725 1.9247-2.295 2.08 1.1356 0.21532 1.9603 0.98032 1.9603 1.8769 0 1.0281-1.04 2.0203-2.6059 2.0203h-4.1719zm2.0441-3.8016v2.9766c0 0.39469 0.02407 0.47813 0.55001 0.47813h1.5062c1.1953 0 1.6256-1.0278 1.6256-1.6734 0-0.78906-0.62156-1.7812-1.9484-1.7812h-1.7334zm0.55001-4.0166c-0.52594 0-0.55001 0.08375-0.55001 0.47812v3.2994h2.2353c1.1478 0 1.7453-1.0041 1.7453-1.9244 0-0.96844-0.72906-1.8531-1.9006-1.8531h-1.53zm9.7959 2.8453c0 0.64531 0 1.1234-0.5259 1.5897-0.4184 0.3825-0.9566 0.55-1.4825 0.55-0.98032 0-1.7334-0.64563-1.7334-1.4225 0-0.34688 0.22719-0.51407 0.50218-0.51407 0.28688 0 0.48996 0.20313 0.48996 0.49 0 0.49032-0.43027 0.49032-0.60933 0.49032 0.27469 0.50187 0.84873 0.71718 1.3268 0.71718 0.5497 0 1.255-0.45437 1.255-1.5303v-0.47812c-2.4028-0.03563-3.3112-1.04-3.3112-1.9603 0-0.94437 1.0997-1.2434 1.8291-1.2434 0.789 0 1.3268 0.47844 1.554 1.0522 0.0478-0.56188 0.4185-0.99219 0.9322-0.99219 0.2513 0 0.9444 0.16719 0.9444 1.1238v0.66937h-0.2628v-0.66937c0-0.68157-0.2869-0.77719-0.4544-0.77719-0.4541 0-0.4541 0.63344-0.4541 0.81281v2.0922zm-0.7772-1.5062c0-1.1716-0.8725-1.5659-1.3865-1.5659-0.586 0-1.076 0.43031-1.076 1.0041 0 1.5778 2.0322 1.7212 2.4625 1.7453v-1.1834zm4.0723 6.6106-1.6619-0.13156v-0.34687c0.8132 0 0.9088-0.08344 0.9088-0.66938v-6.2637c0-0.53812-0.1316-0.53812-0.9088-0.53812v-0.34656c0.3347 0.024063 0.9207 0.024063 1.2791 0.024063 0.3587 0 0.9566 0 1.2912-0.024063v0.34656c-0.765 0-0.9084 0-0.9084 0.53812v7.4116zm5.8099-5.1044c0 0.64531 0 1.1234-0.5259 1.5897-0.4184 0.3825-0.9566 0.55-1.4825 0.55-0.9803 0-1.7334-0.64563-1.7334-1.4225 0-0.34688 0.2271-0.51407 0.5021-0.51407 0.2869 0 0.49 0.20313 0.49 0.49 0 0.49032-0.4303 0.49032-0.6093 0.49032 0.2747 0.50187 0.8487 0.71718 1.3268 0.71718 0.5497 0 1.255-0.45437 1.255-1.5303v-0.47812c-2.4028-0.03563-3.3112-1.04-3.3112-1.9603 0-0.94437 1.0997-1.2434 1.8291-1.2434 0.789 0 1.3268 0.47844 1.554 1.0522 0.0478-0.56188 0.4185-0.99219 0.9322-0.99219 0.2513 0 0.9444 0.16719 0.9444 1.1238v0.66937h-0.2628v-0.66937c0-0.68157-0.2869-0.77719-0.4544-0.77719-0.4541 0-0.4541 0.63344-0.4541 0.81281v2.0922zm-0.7772-1.5062c0-1.1716-0.8725-1.5659-1.3865-1.5659-0.586 0-1.076 0.43031-1.076 1.0041 0 1.5778 2.0322 1.7212 2.4625 1.7453v-1.1834zm7.3357 1.2191c0 1.1119 0 1.4466-0.275 1.8291-0.3468 0.46625-0.9084 0.53813-1.315 0.53813-1.1596 0-1.6137-0.99219-1.7093-1.2312h-0.0119v1.2312l-1.6259-0.13156v-0.34688c0.8128 0 0.9084-0.08344 0.9084-0.66937v-3.2394c0-0.53812-0.1313-0.53812-0.9084-0.53812v-0.34656c0.3109 0.024063 0.9562 0.024063 1.2909 0.024063 0.3469 0 0.9922 0 1.3031-0.024063v0.34656c-0.765 0-0.9084 0-0.9084 0.53812v2.2234c0 1.255 0.8247 1.9247 1.5659 1.9247 0.7413 0 0.9085-0.60969 0.9085-1.3391v-2.8091c0-0.53812-0.1316-0.53812-0.9085-0.53812v-0.34656c0.311 0.024063 0.9563 0.024063 1.291 0.024063 0.3468 0 0.9921 0 1.3031-0.024063v0.34656c-0.5978 0-0.8966 0-0.9085 0.35875v2.1994zm5.5115 1.5184c-0.1435 0-0.586 0-0.586-0.49031 0-0.28688 0.2035-0.49 0.4903-0.49 0.2747 0 0.5019 0.16718 0.5019 0.51406 0 0.80094-0.8369 1.3747-1.805 1.3747-1.3987 0-2.5103-1.2431-2.5103-2.7494 0-1.5303 1.1475-2.7019 2.4984-2.7019 1.5778 0 1.9366 1.4347 1.9366 1.5422s-0.0838 0.1075-0.1197 0.1075c-0.1075 0-0.1194-0.03562-0.1553-0.17906-0.2631-0.84875-0.9084-1.2075-1.5541-1.2075-0.729 0-1.6975 0.63344-1.6975 2.4506 0 1.9844 1.0163 2.4744 1.6138 2.4744 0.4544 0 1.1119-0.17937 1.3869-0.64531zm5.4538-1.6497c0.2628 0 0.2869 0 0.2869 0.22719 0 1.2072-0.6457 2.3309-2.0919 2.3309-1.3628 0-2.4147-1.2312-2.4147-2.7138 0-1.5778 1.2191-2.7375 2.5459-2.7375 1.4228 0 1.9607 1.2913 1.9607 1.5422 0 0.07188-0.0597 0.11969-0.1316 0.11969-0.0956 0-0.1194-0.06-0.1434-0.11969-0.3107-1.0041-1.1116-1.2791-1.6138-1.2791s-1.7094 0.33469-1.7094 2.4028v0.22719h3.3113zm-3.2994 0.22719c0.0956 1.8766 1.1475 2.0919 1.4822 2.0919 1.2794 0 1.3509-1.6856 1.3628-2.0919h-2.845z" fill="#e6e6e6"/>
<path d="m142.31 40.81c0 0.44219 0.03594 0.56157 0.89656 0.56157h0.23907v0.34687c-0.28688-0.02406-1.2672-0.02406-1.6138-0.02406-0.35875 0-1.3388 0-1.6256 0.02406v-0.34687h0.23906c0.86063 0 0.89657-0.11938 0.89657-0.56157v-2.8331h-3.5744v2.8331c0 0.44219 0.03594 0.56157 0.89656 0.56157h0.23907v0.34687c-0.28688-0.02406-1.2672-0.02406-1.6138-0.02406-0.35875 0-1.3391 0-1.6259 0.02406v-0.34687h0.23906c0.86094 0 0.89656-0.11938 0.89656-0.56157v-6.3478c0-0.44219-0.03562-0.56188-0.89656-0.56188h-0.23906v-0.34656c0.28688 0.024062 1.2672 0.024062 1.6141 0.024062 0.35844 0 1.3388 0 1.6256-0.024062v0.34656h-0.23907c-0.86062 0-0.89656 0.11969-0.89656 0.56188v3.1678h3.5744v-3.1678c0-0.44219-0.03594-0.56188-0.89657-0.56188h-0.23906v-0.34656c0.28688 0.024062 1.2669 0.024062 1.6138 0.024062 0.35844 0 1.3388 0 1.6256-0.024062v0.34656h-0.23907c-0.86062 0-0.89656 0.11969-0.89656 0.56188v6.3478zm3.7186 0.1075c0 0.31063-0.251 0.58563-0.5857 0.58563-0.3109 0-0.57403-0.25094-0.57403-0.57375 0-0.35844 0.28719-0.58563 0.57403-0.58563 0.3703 0 0.5857 0.31063 0.5857 0.57375zm-1.6497-2.2234v-0.34688c0.765 0 0.87283-0.07156 0.87283-0.65719v-3.2516c0-0.53812-0.13158-0.53812-0.90877-0.53812v-0.34656c0.33469 0.024062 0.90877 0.024062 1.2553 0.024062 0.1316 0 0.8247 0 1.2313-0.024062v0.34656c-0.7769 0-0.8247 0.06-0.8247 0.52594v4.3994l-1.6259-0.13156zm7.3999-2.3669c0.2628 0 0.2869 0 0.2869 0.22719 0 1.2072-0.6457 2.3309-2.0919 2.3309-1.3628 0-2.4147-1.2312-2.4147-2.7138 0-1.5778 1.2191-2.7375 2.5459-2.7375 1.4229 0 1.9607 1.2913 1.9607 1.5422 0 0.07188-0.0597 0.11969-0.1316 0.11969-0.0956 0-0.1194-0.06-0.1434-0.11969-0.3107-1.0041-1.1116-1.2791-1.6138-1.2791s-1.7094 0.33469-1.7094 2.4028v0.22719h3.3113zm-3.2994 0.22719c0.0956 1.8766 1.1475 2.0919 1.4822 2.0919 1.2794 0 1.3509-1.6856 1.3628-2.0919h-2.845zm5.9201-0.21531c0 1.1597 0.4781 2.2475 1.3987 2.2475 0.0957 0 0.1194 0 0.1672-0.01219-0.0956-0.04781-0.2868-0.11938-0.2868-0.44219 0-0.34656 0.275-0.47812 0.4662-0.47812 0.2391 0 0.4781 0.15531 0.4781 0.47812 0 0.35875-0.3228 0.69344-0.8365 0.69344-1.0163 0-1.3628-1.1-1.4347-1.3269h-0.0119v1.3269l-1.6019-0.13156v-0.34688c0.8128 0 0.9085-0.08344 0.9085-0.66937v-3.2394c0-0.53812-0.1313-0.53812-0.9085-0.53812v-0.34656c0.3347 0.024062 0.9922 0.024062 1.351 0.024062 0.3228 0 1.1712 0 1.4462-0.024062v0.34656h-0.239c-0.8725 0-0.8966 0.13156-0.8966 0.56188v1.8769zm7.1706 0.40656c0 0.64531 0 1.1234-0.5259 1.5897-0.4185 0.3825-0.9566 0.55-1.4825 0.55-0.9803 0-1.7335-0.64563-1.7335-1.4225 0-0.34688 0.2272-0.51407 0.5022-0.51407 0.2869 0 0.49 0.20313 0.49 0.49 0 0.49032-0.4303 0.49032-0.6093 0.49032 0.2746 0.50187 0.8487 0.71718 1.3268 0.71718 0.5497 0 1.255-0.45437 1.255-1.5303v-0.47812c-2.4028-0.03563-3.3112-1.04-3.3112-1.9603 0-0.94437 1.0997-1.2434 1.829-1.2434 0.7891 0 1.3269 0.47844 1.5541 1.0522 0.0478-0.56188 0.4184-0.99219 0.9322-0.99219 0.2512 0 0.9444 0.16719 0.9444 1.1238v0.66937h-0.2628v-0.66937c0-0.68157-0.2869-0.77719-0.4544-0.77719-0.4541 0-0.4541 0.63344-0.4541 0.81281v2.0922zm-0.7772-1.5062c0-1.1716-0.8725-1.5659-1.3865-1.5659-0.586 0-1.076 0.43031-1.076 1.0041 0 1.5778 2.0322 1.7212 2.4625 1.7453v-1.1834zm4.0123 1.0997c0 1.1597 0.4781 2.2475 1.3987 2.2475 0.0957 0 0.1194 0 0.1672-0.01219-0.0956-0.04781-0.2868-0.11938-0.2868-0.44219 0-0.34656 0.275-0.47812 0.4662-0.47812 0.2391 0 0.4781 0.15531 0.4781 0.47812 0 0.35875-0.3228 0.69344-0.8365 0.69344-1.0163 0-1.3628-1.1-1.4347-1.3269h-0.0119v1.3269l-1.6019-0.13156v-0.34688c0.8128 0 0.9085-0.08344 0.9085-0.66937v-3.2394c0-0.53812-0.1313-0.53812-0.9085-0.53812v-0.34656c0.3347 0.024062 0.9922 0.024062 1.351 0.024062 0.3228 0 1.1712 0 1.4462-0.024062v0.34656h-0.239c-0.8725 0-0.8966 0.13156-0.8966 0.56188v1.8769zm6.8837 1.6378c-0.1434 0-0.5859 0-0.5859-0.49031 0-0.28688 0.2034-0.49 0.4903-0.49 0.2747 0 0.5019 0.16718 0.5019 0.51406 0 0.80094-0.8369 1.3747-1.805 1.3747-1.3988 0-2.5103-1.2431-2.5103-2.7494 0-1.5303 1.1475-2.7019 2.4984-2.7019 1.5778 0 1.9366 1.4347 1.9366 1.5422s-0.0838 0.1075-0.1197 0.1075c-0.1075 0-0.1194-0.03562-0.1553-0.17906-0.2631-0.84875-0.9085-1.2075-1.5541-1.2075-0.729 0-1.6975 0.63344-1.6975 2.4506 0 1.9844 1.0163 2.4744 1.6138 2.4744 0.4543 0 1.1118-0.17937 1.3868-0.64531z" fill="#e6e6e6"/>
<path d="m177.54 36.459c0 1.1119 0 1.4466-0.275 1.8291-0.3468 0.46625-0.9084 0.53813-1.315 0.53813-1.0281 0-1.5062-0.77719-1.6734-1.1478h-0.0122v4.1722l-1.6616-0.13156v-0.34687c0.8129 0 0.9085-0.08344 0.9085-0.66938v-6.2637c0-0.53812-0.1313-0.53812-0.9085-0.53812v-0.34656c0.311 0.024062 0.9563 0.024062 1.291 0.024062 0.3469 0 0.9922 0 1.3031-0.024062v0.34656c-0.765 0-0.9084 0-0.9084 0.53812v2.2234c0 1.255 0.8247 1.9247 1.5659 1.9247 0.7413 0 0.9084-0.60969 0.9084-1.3391v-2.8091c0-0.53812-0.1315-0.53812-0.9084-0.53812v-0.34656c0.3109 0.024062 0.9563 0.024062 1.2909 0.024062 0.3469 0 0.9922 0 1.3032-0.024062v0.34656c-0.5978 0-0.8966 0-0.9085 0.35875v2.1994z" fill="#e6e6e6"/>
<path d="m183.24 37.547c0.3228 0.80062 0.8847 0.81281 1.1119 0.81281v0.34656c-0.3466-0.02375-0.5141-0.02375-0.8966-0.02375-0.275 0-0.2988 0-0.9681 0.02375v-0.34656c0.4422-0.02406 0.5497-0.29906 0.5497-0.51406 0-0.1075-0.0238-0.1675-0.0716-0.28688l-1.2194-3.0125-1.3269 3.2516c-0.0718 0.16719-0.0718 0.23907-0.0718 0.25094 0 0.31094 0.4184 0.31094 0.6575 0.31094v0.34656c-0.3107-0.02375-0.8966-0.02375-1.2313-0.02375-0.4544 0-0.4781 0-1.1594 0.02375v-0.34656c0.6932 0 0.7888-0.06 0.9444-0.43031l1.781-4.3753c-0.526-1.2672-0.526-1.2909-0.5738-1.3866-0.2031-0.35875-0.5259-0.81312-1.0637-0.81312-0.3707 0-0.5979 0.21531-0.5979 0.21531s0.4185 0.04781 0.4185 0.46625c0 0.28687-0.2272 0.44219-0.4425 0.44219-0.2031 0-0.4541-0.11938-0.4541-0.46625 0-0.45407 0.4422-0.89657 1.076-0.89657 0.6693 0 1.1593 0.58594 1.4703 1.3391l2.0678 5.0925z" fill="#e6e6e6"/>
<path d="m56.284 37.376c-0.60969 0.15532-1.1478 0.75281-1.1478 1.5181 0 0.83656 0.66969 1.5897 1.6019 1.5897 1.9606 0 2.2234-1.9366 2.2953-2.4506 0.02375-0.14344 0.02375-0.19125 0.14343-0.19125 0.13156 0 0.13156 0.06 0.13156 0.275v2.4147c0 0.21531 0 0.275-0.11968 0.275-0.03594 0-0.08375 0-0.16719-0.15531l-0.39469-0.72938c-0.57375 0.74125-1.3628 0.88469-1.8888 0.88469-1.3269 0-2.295-1.0638-2.295-2.2831 0-0.57375 0.20312-1.0997 0.64532-1.5781 0.41843-0.46594 0.83687-0.57375 1.6856-0.78875 0.41844-0.09563 1.0759-0.26313 1.2431-0.33469 0.56187-0.275 0.93249-0.92063 0.93249-1.59 0-0.89656-0.63343-1.7453-1.6256-1.7453-0.53812 0-1.2791 0.13156-1.865 0.64562-0.69344 0.62157-0.74125 1.4822-0.75312 1.8766-0.011875 0.09562-0.1075 0.09562-0.13156 0.09562-0.13125 0-0.13125-0.05969-0.13125-0.27469v-2.4147c0-0.21531 0-0.275 0.11938-0.275 0.071875 0 0.08375 0.02375 0.1675 0.16719 0.047812 0.095624 0.29875 0.53812 0.39437 0.71719 0.43031-0.47812 1.1834-0.88438 2.2116-0.88438 1.3388 0 2.3072 1.1356 2.3072 2.4506 0 0.72906-0.275 1.2669-0.59781 1.6616-0.44219 0.53782-0.98031 0.66938-1.4466 0.78875l-1.3147 0.335zm8.3445-0.56187c-0.1434 0-0.5859 0-0.5859-0.49031 0-0.28688 0.2034-0.49 0.4903-0.49 0.2747 0 0.5018 0.16718 0.5018 0.51406 0 0.80093-0.8368 1.3747-1.805 1.3747-1.3988 0-2.5103-1.2431-2.5103-2.7494 0-1.5303 1.1475-2.7019 2.4984-2.7019 1.5778 0 1.9365 1.4347 1.9365 1.5422s-0.0837 0.1075-0.1197 0.1075c-0.1075 0-0.1193-0.03562-0.1553-0.17906-0.2631-0.84875-0.9084-1.2075-1.554-1.2075-0.72907 0-1.6975 0.63344-1.6975 2.4506 0 1.9844 1.0162 2.4744 1.6138 2.4744 0.45437 0 1.1119-0.17937 1.3869-0.64531zm5.4898-1.2312c0 0.64531 0 1.1234-0.526 1.5897-0.4184 0.38249-0.9565 0.54999-1.4825 0.54999-0.9803 0-1.7334-0.64562-1.7334-1.4225 0-0.34687 0.2272-0.51406 0.5022-0.51406 0.2868 0 0.49 0.20313 0.49 0.49 0 0.49032-0.4303 0.49032-0.6094 0.49032 0.2747 0.50187 0.8487 0.71718 1.3269 0.71718 0.5497 0 1.255-0.45437 1.255-1.5303v-0.47813c-2.4028-0.03562-3.3113-1.04-3.3113-1.9603 0-0.94437 1.0997-1.2434 1.8291-1.2434 0.789 0 1.3269 0.47844 1.554 1.0522 0.0479-0.56187 0.4185-0.99219 0.9322-0.99219 0.2513 0 0.9444 0.16719 0.9444 1.1237v0.66938h-0.2628v-0.66938c0-0.68156-0.2869-0.77718-0.4544-0.77718-0.454 0-0.454 0.63344-0.454 0.81281v2.0922zm-0.7772-1.5062c0-1.1716-0.8725-1.5659-1.3866-1.5659-0.5859 0-1.0759 0.43031-1.0759 1.0041 0 1.5778 2.0322 1.7212 2.4625 1.7453v-1.1834zm4.0722 6.6106-1.6618-0.13156v-0.34688c0.8131 0 0.9087-0.08343 0.9087-0.66937v-6.2638c0-0.53812-0.1316-0.53812-0.9087-0.53812v-0.34656c0.3346 0.024062 0.9206 0.024062 1.279 0.024062 0.3588 0 0.9566 0 1.2913-0.024062v0.34656c-0.765 0-0.9085 0-0.9085 0.53812v7.4116zm5.774-5.5228c0.2628 0 0.2869 0 0.2869 0.22719 0 1.2072-0.6456 2.3309-2.0919 2.3309-1.3628 0-2.4147-1.2312-2.4147-2.7137 0-1.5778 1.2191-2.7375 2.546-2.7375 1.4228 0 1.9606 1.2913 1.9606 1.5422 0 0.07188-0.0597 0.11969-0.1316 0.11969-0.0956 0-0.1193-0.06-0.1434-0.11969-0.3106-1.0041-1.1116-1.2791-1.6138-1.2791-0.5021 0-1.7093 0.33469-1.7093 2.4028v0.22719h3.3112zm-3.2994 0.22719c0.0957 1.8766 1.1475 2.0919 1.4822 2.0919 1.2794 0 1.351-1.6856 1.3628-2.0919h-2.845z" fill="#e6e6e6"/>
<path d="m15.491 127.06c-0.60969 0.15532-1.1478 0.75282-1.1478 1.5181 0 0.83656 0.66969 1.5897 1.6019 1.5897 1.9606 0 2.2234-1.9366 2.2953-2.4506 0.02375-0.14344 0.02375-0.19125 0.14343-0.19125 0.13157 0 0.13157 0.06 0.13157 0.275v2.4147c0 0.21531 0 0.275-0.11969 0.275-0.03594 0-0.08375 0-0.16719-0.15531l-0.39469-0.72938c-0.57375 0.74125-1.3628 0.88469-1.8888 0.88469-1.3269 0-2.295-1.0638-2.295-2.2831 0-0.57375 0.20312-1.0997 0.64532-1.5781 0.41843-0.46594 0.83687-0.57375 1.6856-0.78875 0.41844-0.09563 1.0759-0.26313 1.2431-0.33469 0.56187-0.275 0.9325-0.92062 0.9325-1.59 0-0.89656-0.63344-1.7453-1.6256-1.7453-0.53812 0-1.2791 0.13156-1.865 0.64562-0.69344 0.62157-0.74125 1.4822-0.75312 1.8766-0.011875 0.09562-0.1075 0.09562-0.13156 0.09562-0.13125 0-0.13125-0.05969-0.13125-0.27469v-2.4147c0-0.21531 0-0.275 0.11938-0.275 0.071875 0 0.08375 0.02375 0.1675 0.16719 0.047813 0.095625 0.29875 0.53812 0.39437 0.71719 0.43032-0.47812 1.1834-0.88438 2.2116-0.88438 1.3388 0 2.3072 1.1356 2.3072 2.4506 0 0.72906-0.275 1.2669-0.59781 1.6616-0.44219 0.53782-0.98031 0.66938-1.4466 0.78875l-1.3147 0.335zm6.097 2.3788c0 0.31063-0.25094 0.58563-0.58562 0.58563-0.31094 0-0.57407-0.25094-0.57407-0.57375 0-0.35844 0.28719-0.58563 0.57407-0.58563 0.37031 0 0.58562 0.31063 0.58562 0.57375zm-1.6497-2.2234v-0.34688c0.765 0 0.87282-0.07156 0.87282-0.65719v-3.2516c0-0.53812-0.13157-0.53812-0.90875-0.53812v-0.34656c0.33468 0.024063 0.90875 0.024063 1.2553 0.024063 0.13156 0 0.82469 0 1.2312-0.024063v0.34656c-0.77688 0-0.82469 0.06-0.82469 0.52594v4.3994l-1.6259-0.13156zm11.392-2.2356c0 1.1119 0 1.4466-0.2747 1.8291-0.3468 0.46625-0.9087 0.53813-1.315 0.53813-0.9921 0-1.4943-0.7175-1.6856-1.1834-0.1672 0.92031-0.8128 1.1834-1.5659 1.1834-1.1597 0-1.6138-0.99219-1.7094-1.2312h-0.0119v1.2312l-1.6259-0.13156v-0.34688c0.8128 0 0.9084-0.08344 0.9084-0.66937v-3.2394c0-0.53812-0.1312-0.53812-0.9084-0.53812v-0.34656c0.3109 0.024063 0.9562 0.024063 1.2909 0.024063 0.3469 0 0.9922 0 1.3032-0.024063v0.34656c-0.765 0-0.9085 0-0.9085 0.53812v2.2234c0 1.255 0.8247 1.9247 1.566 1.9247 0.7412 0 0.9084-0.60969 0.9084-1.3391v-2.8091c0-0.53812-0.1316-0.53812-0.9084-0.53812v-0.34656c0.3109 0.024063 0.9562 0.024063 1.2909 0.024063 0.3469 0 0.9922 0 1.3031-0.024063v0.34656c-0.765 0-0.9084 0-0.9084 0.53812v2.2234c0 1.255 0.8247 1.9247 1.5659 1.9247 0.741 0 0.9085-0.60969 0.9085-1.3391v-2.8091c0-0.53812-0.1316-0.53812-0.9085-0.53812v-0.34656c0.3106 0.024063 0.9563 0.024063 1.291 0.024063 0.3465 0 0.9921 0 1.3031-0.024063v0.34656c-0.5978 0-0.8966 0-0.9088 0.35875v2.1994zm3.2645 4.4591c0 0.31063-0.251 0.58563-0.5856 0.58563-0.311 0-0.5741-0.25094-0.5741-0.57375 0-0.35844 0.2872-0.58563 0.5741-0.58563 0.3703 0 0.5856 0.31063 0.5856 0.57375zm-1.6497-2.2234v-0.34688c0.765 0 0.8728-0.07156 0.8728-0.65719v-3.2516c0-0.53812-0.1316-0.53812-0.9087-0.53812v-0.34656c0.3346 0.024063 0.9087 0.024063 1.2553 0.024063 0.1315 0 0.8247 0 1.2312-0.024063v0.34656c-0.7769 0-0.8247 0.06-0.8247 0.52594v4.3994l-1.6259-0.13156zm4.8777 3.1559-1.6618-0.13156v-0.34687c0.8131 0 0.9087-0.08344 0.9087-0.66938v-6.2637c0-0.53812-0.1316-0.53812-0.9087-0.53812v-0.34656c0.3346 0.024063 0.9206 0.024063 1.279 0.024063 0.3588 0 0.9566 0 1.2913-0.024063v0.34656c-0.765 0-0.9085 0-0.9085 0.53812v7.4116zm5.8099-5.1044c0 0.64531 0 1.1234-0.5259 1.5897-0.4184 0.3825-0.9566 0.55-1.4825 0.55-0.9803 0-1.7334-0.64563-1.7334-1.4225 0-0.34688 0.2272-0.51407 0.5022-0.51407 0.2868 0 0.49 0.20313 0.49 0.49 0 0.49032-0.4304 0.49032-0.6094 0.49032 0.2747 0.50187 0.8487 0.71718 1.3269 0.71718 0.5496 0 1.255-0.45437 1.255-1.5303v-0.47812c-2.4029-0.03563-3.3113-1.04-3.3113-1.9603 0-0.94437 1.0997-1.2434 1.8291-1.2434 0.789 0 1.3268 0.47844 1.554 1.0522 0.0478-0.56188 0.4185-0.99219 0.9322-0.99219 0.2513 0 0.9444 0.16719 0.9444 1.1238v0.66937h-0.2628v-0.66937c0-0.68157-0.2869-0.77719-0.4544-0.77719-0.4541 0-0.4541 0.63344-0.4541 0.81281v2.0922zm-0.7771-1.5062c0-1.1716-0.8725-1.5659-1.3866-1.5659-0.5859 0-1.0759 0.43031-1.0759 1.0041 0 1.5778 2.0321 1.7212 2.4625 1.7453v-1.1834zm4.0122 1.0997c0 1.1597 0.4781 2.2475 1.3988 2.2475 0.0956 0 0.1194 0 0.1672-0.01219-0.0957-0.04781-0.2869-0.11938-0.2869-0.44219 0-0.34656 0.275-0.47812 0.4662-0.47812 0.2391 0 0.4782 0.15531 0.4782 0.47812 0 0.35875-0.3228 0.69344-0.8366 0.69344-1.0162 0-1.3628-1.1-1.4347-1.3269h-0.0119v1.3269l-1.6018-0.13156v-0.34688c0.8128 0 0.9084-0.08344 0.9084-0.66937v-3.2394c0-0.53812-0.1312-0.53812-0.9084-0.53812v-0.34656c0.3347 0.024063 0.9922 0.024063 1.3509 0.024063 0.3228 0 1.1713 0 1.4463-0.024063v0.34656h-0.2391c-0.8725 0-0.8966 0.13156-0.8966 0.56188v1.8769zm4.6363 4.5784c0 0.31063-0.251 0.58563-0.5856 0.58563-0.311 0-0.5741-0.25094-0.5741-0.57375 0-0.35844 0.2872-0.58563 0.5741-0.58563 0.3703 0 0.5856 0.31063 0.5856 0.57375zm-1.6497-2.2234v-0.34688c0.765 0 0.8728-0.07156 0.8728-0.65719v-3.2516c0-0.53812-0.1316-0.53812-0.9087-0.53812v-0.34656c0.3346 0.024063 0.9087 0.024063 1.2553 0.024063 0.1315 0 0.8247 0 1.2312-0.024063v0.34656c-0.7769 0-0.8247 0.06-0.8247 0.52594v4.3994l-1.6259-0.13156zm4.8299-0.33469h1.6853v0.34656h-1.6853v2.1997h-0.2631c-0.0119-1.1238-0.4422-2.2712-1.53-2.3072v-0.23906h1.0159v-3.3234c0-1.3269 0.8847-1.6019 1.5181-1.6019 0.7532 0 1.1475 0.74125 1.1475 1.6019v0.68156h-0.2628v-0.6575c0-0.86062-0.3465-1.3628-0.8128-1.3628-0.8128 0-0.8128 1.1119-0.8128 1.315v3.3472z" fill="#e6e6e6"/>
<path d="m61.73 126.07c0.3228 0.80062 0.8847 0.81281 1.1118 0.81281v0.34656c-0.3465-0.02375-0.514-0.02375-0.8965-0.02375-0.275 0-0.2988 0-0.9681 0.02375v-0.34656c0.4421-0.02406 0.5496-0.29906 0.5496-0.51406 0-0.1075-0.0237-0.1675-0.0715-0.28688l-1.2194-3.0125-1.3269 3.2516c-0.0718 0.16719-0.0718 0.23907-0.0718 0.25094 0 0.31094 0.4184 0.31094 0.6575 0.31094v0.34656c-0.3107-0.02375-0.8966-0.02375-1.2313-0.02375-0.4544 0-0.4781 0-1.1594 0.02375v-0.34656c0.6932 0 0.7888-0.06 0.9444-0.43031l1.7809-4.3753c-0.5259-1.2672-0.5259-1.2909-0.5737-1.3866-0.2031-0.35875-0.5259-0.81312-1.0638-0.81312-0.3706 0-0.5978 0.21531-0.5978 0.21531s0.4185 0.04781 0.4185 0.46625c0 0.28687-0.2272 0.44219-0.4425 0.44219-0.2032 0-0.4541-0.11938-0.4541-0.46625 0-0.45407 0.4422-0.89657 1.0759-0.89657 0.6694 0 1.1594 0.58594 1.4704 1.3391l2.0678 5.0925z" fill="#e6e6e6"/>
</g>
</svg>
