<?xml version="1.0" encoding="UTF-8"?>
<svg class="mw-100" width="318.97pt" version="1.1" viewBox="0 -348.93 318.97 348.93" xmlns="http://www.w3.org/2000/svg">
<g transform="scale(1 -1)">
<path d="m210.98 174.47c0-28.438-23.055-51.489-51.489-51.489-28.437 0-51.488 23.051-51.488 51.489 0 28.433 23.051 51.488 51.488 51.488 28.434 0 51.489-23.055 51.489-51.488" fill="#404040"/>
<path d="m210.98 297.44c0-28.437-23.055-51.488-51.489-51.488-28.437 0-51.488 23.051-51.488 51.488 0 28.434 23.051 51.485 51.488 51.485 28.434 0 51.489-23.051 51.489-51.485" fill="#404040"/>
<path d="m317.47 235.96c0-28.437-23.051-51.488-51.485-51.488-28.437 0-51.488 23.051-51.488 51.488 0 28.434 23.051 51.488 51.488 51.488 28.434 0 51.485-23.054 51.485-51.488" fill="#404040"/>
<path d="m317.47 112.98c0-28.433-23.051-51.488-51.485-51.488-28.437 0-51.488 23.055-51.488 51.488 0 28.438 23.051 51.489 51.488 51.489 28.434 0 51.485-23.051 51.485-51.489" fill="#404040"/>
<path d="m210.98 51.492c0-28.434-23.055-51.484-51.489-51.484-28.437 0-51.488 23.051-51.488 51.484 0 28.438 23.051 51.488 51.488 51.488 28.434 0 51.489-23.05 51.489-51.488" fill="#404040"/>
<path d="m104.48 112.98c0-28.433-23.055-51.488-51.489-51.488-28.438 0-51.488 23.055-51.488 51.488 0 28.438 23.051 51.489 51.488 51.489 28.434 0 51.489-23.051 51.489-51.489" fill="#404040"/>
<path d="m104.48 235.96c0-28.437-23.055-51.488-51.489-51.488-28.438 0-51.488 23.051-51.488 51.488 0 28.434 23.051 51.488 51.488 51.488 28.434 0 51.489-23.054 51.489-51.488" fill="#404040"/>
<path d="m132.54 179.45c-0.1675 0-0.47812 0-0.47812-0.34687 0-0.34656 0.31062-0.34656 0.47812-0.34656h0.23906v-5.9172h-0.23906c-0.1675 0-0.47812 0-0.47812-0.34688 0-0.34656 0.31062-0.34656 0.47812-0.34656h2.3788c1.5422 0 2.57 1.6975 2.57 3.5862 0 1.9125-0.99219 3.7178-2.5819 3.7178h-2.3669zm1.0159-6.6106v5.9172h1.1356c1.3869 0 2.0203-1.6497 2.0203-3.0125 0-1.4462-0.70531-2.9047-2.0084-2.9047h-1.1475zm9.3677 1.6019c0.2512 0 0.4781 0 0.4781 0.44219 0 1.3988-0.7887 2.5222-2.2831 2.5222-1.3866 0-2.4984-1.1953-2.4984-2.6538 0-1.5062 1.2075-2.6778 2.6778-2.6778 1.5418 0 2.1037 1.0641 2.1037 1.375 0 0.07156-0.0237 0.33468-0.3944 0.33468-0.2271 0-0.2987-0.08375-0.3706-0.26312-0.2987-0.69344-1.0759-0.75313-1.3028-0.75313-0.99219 0-1.7812 0.75313-1.9128 1.6737h3.5025zm-3.4906 0.6575c0.15563 1.0159 0.9325 1.6138 1.6856 1.6138 1.1953 0 1.4466-1.0162 1.4944-1.6138h-3.18zm10.085 0.66938c0 0.26281 0 1.6019-1.0522 1.6019-0.4181 0-0.8247-0.19125-1.1475-0.63375-0.0715 0.17938-0.3347 0.63375-0.9084 0.63375-0.5381 0-0.9085-0.34687-1.0041-0.45437-0.0122 0.3825-0.2631 0.3825-0.4784 0.3825h-0.3585c-0.1675 0-0.4781 0-0.4781-0.34656 0-0.34688 0.275-0.34688 0.6453-0.34688v-3.7653c-0.3825 0-0.6453 0-0.6453-0.34688 0-0.34656 0.3106-0.34656 0.4781-0.34656h1.0041c0.1675 0 0.4781 0 0.4781 0.34656 0 0.34688-0.275 0.34688-0.6453 0.34688v2.1994c0 1.0041 0.4303 1.6378 0.9563 1.6378 0.3347 0 0.4303-0.41844 0.4303-0.98032v-2.8569c-0.2031 0-0.526 0-0.526-0.34688 0-0.34656 0.3229-0.34656 0.49-0.34656h0.8729c0.1671 0 0.4781 0 0.4781 0.34656 0 0.34688-0.275 0.34688-0.6456 0.34688v2.1994c0 1.0041 0.4303 1.6378 0.9562 1.6378 0.3347 0 0.4303-0.41844 0.4303-0.98032v-2.8569c-0.2031 0-0.5259 0-0.5259-0.34688 0-0.34656 0.3228-0.34656 0.4903-0.34656h0.8725c0.1675 0 0.4781 0 0.4781 0.34656 0 0.34688-0.275 0.34688-0.6453 0.34688v2.9288zm6.1877-1.04c0 1.4941-1.0878 2.6775-2.3787 2.6775s-2.3788-1.1834-2.3788-2.6775c0-1.5062 1.0997-2.6541 2.3788-2.6541s2.3787 1.1478 2.3787 2.6541zm-2.3787-1.9606c-0.8606 0-1.6019 0.90844-1.6019 2.0441 0 1.1119 0.765 1.9009 1.6019 1.9009s1.6019-0.78906 1.6019-1.9009c0-1.1475-0.7413-2.0441-1.6019-2.0441zm8.5309 0.68157c0 0.31062-0.2988 0.31062-0.3944 0.31062-0.275 0-0.3228-0.09562-0.3825-0.26281-0.2631-0.6575-0.8488-0.72938-1.1356-0.72938-1.0163 0-1.8769 0.84875-1.8769 1.9606 0 0.60969 0.3469 1.9844 1.9128 1.9844 0.3225 0 0.5737-0.02406 0.6812-0.03593 0.0838-0.02407 0.0957-0.03594 0.0957-0.09563 0.0359-0.49 0.4065-0.50219 0.4781-0.50219 0.2631 0 0.4903 0.17938 0.4903 0.50219 0 0.82469-1.2075 0.82469-1.7334 0.82469-2.0441 0-2.7016-1.6734-2.7016-2.6775 0-1.4584 1.1116-2.6541 2.5463-2.6541 1.6018 0 2.02 1.1838 2.02 1.375zm3.2833 0.95625c0 1.4225 1.0041 2.2712 2.02 2.2712 0.06 0 0.1316 0 0.1913-0.01188 0.0359-0.43031 0.3706-0.46625 0.4543-0.46625 0.275 0 0.4663 0.20313 0.4663 0.46625 0 0.51406-0.5022 0.70531-1.0997 0.70531-0.8009 0-1.4825-0.35875-2.0322-1.0281v0.46625c0 0.37062-0.0719 0.49-0.4781 0.49h-1.2075c-0.1675 0-0.4781 0-0.4781-0.34656 0-0.34688 0.3106-0.34688 0.4781-0.34688h0.9084v-3.7653h-0.9084c-0.1675 0-0.4781 0-0.4781-0.34688 0-0.34656 0.3106-0.34656 0.4781-0.34656h2.9406c0.1675 0 0.4781 0 0.4781 0.34656 0 0.34688-0.3106 0.34688-0.4781 0.34688h-1.255v1.5659zm8.519 1.1356c0 0.90844-0.6816 1.8647-2.2953 1.8647-0.5019 0-1.6616 0-1.6616-0.82469 0-0.32281 0.2272-0.50219 0.49-0.50219 0.0719 0 0.4663 0.02407 0.4781 0.52594 0 0.06 0.0122 0.07188 0.2632 0.09563 0.1434 0.01218 0.2987 0.01218 0.4422 0.01218 0.275 0 0.6815 0 1.0759-0.29906 0.4303-0.33469 0.4303-0.66937 0.4303-1.0159-0.7053-0.02406-1.3984-0.07187-2.1397-0.31093-0.5978-0.20313-1.3628-0.63344-1.3628-1.4462 0-0.84875 0.7531-1.5663 1.865-1.5663 0.3825 0 1.1234 0.06 1.7453 0.49031 0.2391-0.39438 0.8366-0.41844 1.291-0.41844 0.2868 0 0.5737 0 0.5737 0.34656 0 0.34688-0.3109 0.34688-0.4781 0.34688-0.311 0-0.55 0.02375-0.7172 0.095625v2.6059zm-0.7772-1.8172c0-0.27468 0-0.52593-0.49-0.75312-0.4184-0.20312-0.9803-0.20312-1.0162-0.20312-0.7054 0-1.2191 0.3825-1.2191 0.87282 0 0.70531 1.2791 1.1116 2.7253 1.1116v-1.0281zm7.4312-0.27468c0 0.31062-0.2988 0.31062-0.3944 0.31062-0.275 0-0.3228-0.09562-0.3825-0.26281-0.2631-0.6575-0.8487-0.72938-1.1356-0.72938-1.0163 0-1.8769 0.84875-1.8769 1.9606 0 0.60969 0.3469 1.9844 1.9128 1.9844 0.3225 0 0.5738-0.02406 0.6813-0.03593 0.0837-0.02407 0.0956-0.03594 0.0956-0.09563 0.0359-0.49 0.4066-0.50219 0.4781-0.50219 0.2631 0 0.4903 0.17938 0.4903 0.50219 0 0.82469-1.2075 0.82469-1.7334 0.82469-2.0441 0-2.7016-1.6734-2.7016-2.6775 0-1.4584 1.1116-2.6541 2.5463-2.6541 1.6019 0 2.02 1.1838 2.02 1.375zm5.7696 3.1556h0.3109c0.1672 0 0.49 0 0.49 0.34688 0 0.34656-0.3228 0.34656-0.49 0.34656h-1.315c-0.1675 0-0.49 0-0.49-0.34656 0-0.34688 0.3225-0.34688 0.49-0.34688h0.2988c-0.3347-0.98-1.016-2.9766-1.1835-3.6578h-0.0118c-0.0597 0.26312-0.1075 0.39437-0.2272 0.71719l-1.1116 2.9406h0.275c0.1672 0 0.49 0 0.49 0.34688 0 0.34656-0.3228 0.34656-0.49 0.34656h-1.315c-0.1675 0-0.4903 0-0.4903-0.34656 0-0.34688 0.3228-0.34688 0.4903-0.34688h0.3228l1.6735-4.3034c0.0478-0.11938 0.0478-0.14344 0.0478-0.15531 0-0.024063-0.311-1.0641-0.49-1.3988-0.0719-0.11937-0.3706-0.68125-0.9444-0.62156 0.0119 0.03594 0.0478 0.10781 0.0478 0.23906 0 0.275-0.1912 0.46625-0.4662 0.46625-0.2991 0-0.4782-0.20312-0.4782-0.47812 0-0.45438 0.3825-0.9325 0.98-0.9325 1.1597 0 1.6738 1.5422 1.7097 1.6378l1.8766 5.5466z" fill="#e6e6e6"/>
<path d="m139.95 297.1h1.6259c0-0.41844 0-0.64562 0.39438-0.64562 0.3825 0 0.3825 0.275 0.3825 0.49031v1.0041c0 0.21531 0 0.49-0.3825 0.49-0.39438 0-0.39438-0.22687-0.39438-0.64531h-1.6259v2.6059h2.9647v-0.58563c0-0.21531 0-0.49031 0.3825-0.49031 0.39438 0 0.39438 0.26312 0.39438 0.49031v0.78875c0 0.37063-0.07157 0.49031-0.47813 0.49031h-4.3991c-0.16719 0-0.49 0-0.49-0.34687 0-0.34656 0.32281-0.34656 0.49-0.34656h0.35875v-5.9172h-0.35875c-0.16719 0-0.49 0-0.49-0.34688 0-0.34656 0.32281-0.34656 0.49-0.34656h1.7094c0.1675 0 0.47844 0 0.47844 0.34656 0 0.34688-0.31094 0.34688-0.47844 0.34688h-0.57375v2.6178zm6.738-1.0519c0 1.4225 1.0041 2.2712 2.02 2.2712 0.06 0 0.1315 0 0.1912-0.01188 0.036-0.43031 0.3707-0.46625 0.4544-0.46625 0.275 0 0.4663 0.20313 0.4663 0.46625 0 0.51406-0.5022 0.70531-1.0997 0.70531-0.80097 0-1.4825-0.35875-2.0322-1.0281v0.46625c0 0.37062-0.07187 0.49-0.47812 0.49h-1.2075c-0.1675 0-0.47813 0-0.47813-0.34656 0-0.34688 0.31063-0.34688 0.47813-0.34688h0.90843v-3.7653h-0.90843c-0.1675 0-0.47813 0-0.47813-0.34688 0-0.34656 0.31063-0.34656 0.47813-0.34656h2.9406c0.16752 0 0.47812 0 0.47812 0.34656 0 0.34688-0.3106 0.34688-0.47812 0.34688h-1.255v1.5659zm8.5427 0.03593c0.2513 0 0.4781 0 0.4781 0.44219 0 1.3988-0.7887 2.5222-2.2831 2.5222-1.3865 0-2.4984-1.1953-2.4984-2.6538 0-1.5062 1.2075-2.6778 2.6778-2.6778 1.5419 0 2.1037 1.0641 2.1037 1.375 0 0.07156-0.0237 0.33468-0.3943 0.33468-0.2272 0-0.2988-0.08375-0.3707-0.26312-0.2987-0.69344-1.0759-0.75313-1.3028-0.75313-0.9922 0-1.7812 0.75313-1.9128 1.6737h3.5025zm-3.4906 0.6575c0.1556 1.0159 0.9325 1.6138 1.6856 1.6138 1.1953 0 1.4466-1.0162 1.4944-1.6138h-3.18zm9.6427-0.6575c0.2513 0 0.4781 0 0.4781 0.44219 0 1.3988-0.7887 2.5222-2.2831 2.5222-1.3865 0-2.4984-1.1953-2.4984-2.6538 0-1.5062 1.2075-2.6778 2.6778-2.6778 1.5419 0 2.1037 1.0641 2.1037 1.375 0 0.07156-0.0237 0.33468-0.3943 0.33468-0.2272 0-0.2988-0.08375-0.3706-0.26312-0.2988-0.69344-1.076-0.75313-1.3029-0.75313-0.9922 0-1.7812 0.75313-1.9128 1.6737h3.5025zm-3.4906 0.6575c0.1556 1.0159 0.9325 1.6138 1.6856 1.6138 1.1953 0 1.4466-1.0162 1.4944-1.6138h-3.18zm9.6668 3.8609c0 0.37063-0.0719 0.49031-0.4781 0.49031h-0.7891c-0.1675 0-0.4781 0-0.4781-0.34687 0-0.34656 0.3106-0.34656 0.4781-0.34656h0.49v-1.9844c-0.1912 0.19125-0.6812 0.59781-1.4106 0.59781-1.2669 0-2.3669-1.1478-2.3669-2.6541 0-1.4703 1.0281-2.6419 2.2594-2.6419 0.7772 0 1.2912 0.46625 1.5181 0.72938 0-0.50219 0-0.6575 0.4781-0.6575h0.7891c0.1675 0 0.4781 0 0.4781 0.34656 0 0.34688-0.3106 0.34688-0.4781 0.34688h-0.49v6.1203zm-0.7772-4.5425c0-0.66937-0.5497-1.6497-1.4462-1.6497-0.861 0-1.5541 0.87282-1.5541 1.9484 0 1.1478 0.8128 1.9606 1.6616 1.9606 0.7768 0 1.3387-0.70532 1.3387-1.3269v-0.9325zm7.3834 0.31094c0 1.4941-1.0878 2.6775-2.3788 2.6775-1.2909 0-2.3787-1.1834-2.3787-2.6775 0-1.5062 1.0997-2.6541 2.3787-2.6541 1.2791 0 2.3788 1.1478 2.3788 2.6541zm-2.3788-1.9606c-0.8606 0-1.6019 0.90844-1.6019 2.0441 0 1.1119 0.765 1.9009 1.6019 1.9009s1.6019-0.78906 1.6019-1.9009c0-1.1475-0.7413-2.0441-1.6019-2.0441zm8.4953 3.0006c0 0.26281 0 1.6019-1.0522 1.6019-0.4182 0-0.8247-0.19125-1.1475-0.63375-0.0716 0.17938-0.3347 0.63375-0.9085 0.63375-0.5381 0-0.9084-0.34687-1.004-0.45437-0.0122 0.3825-0.2632 0.3825-0.4785 0.3825h-0.3584c-0.1675 0-0.4781 0-0.4781-0.34656 0-0.34688 0.275-0.34688 0.6453-0.34688v-3.7653c-0.3825 0-0.6453 0-0.6453-0.34688 0-0.34656 0.3106-0.34656 0.4781-0.34656h1.0041c0.1675 0 0.4781 0 0.4781 0.34656 0 0.34688-0.275 0.34688-0.6453 0.34688v2.1994c0 1.0041 0.4303 1.6378 0.9562 1.6378 0.3347 0 0.4303-0.41844 0.4303-0.98032v-2.8569c-0.2031 0-0.5259 0-0.5259-0.34688 0-0.34656 0.3228-0.34656 0.49-0.34656h0.8728c0.1672 0 0.4781 0 0.4781 0.34656 0 0.34688-0.275 0.34688-0.6456 0.34688v2.1994c0 1.0041 0.4303 1.6378 0.9563 1.6378 0.3346 0 0.4303-0.41844 0.4303-0.98032v-2.8569c-0.2032 0-0.526 0-0.526-0.34688 0-0.34656 0.3228-0.34656 0.4903-0.34656h0.8725c0.1675 0 0.4782 0 0.4782 0.34656 0 0.34688-0.275 0.34688-0.6453 0.34688v2.9288z" fill="#e6e6e6"/>
<path d="m229.46 238.91h1.2194c0.1675 0 0.47813 0 0.47813 0.34656 0 0.34688-0.31063 0.34688-0.47813 0.34688h-3.2156c-0.16719 0-0.47813 0-0.47813-0.34688 0-0.34656 0.31094-0.34656 0.47813-0.34656h1.2194v-5.9172h-1.2194c-0.16719 0-0.47813 0-0.47813-0.34688 0-0.34656 0.31094-0.34656 0.47813-0.34656h3.2156c0.1675 0 0.47813 0 0.47813 0.34656 0 0.34688-0.31063 0.34688-0.47813 0.34688h-1.2194v5.9172zm7.6824-3.1081c0 1.1716-0.55 1.7216-1.5303 1.7216-0.81282 0-1.3388-0.45438-1.5419-0.68157 0 0.4425 0 0.60969-0.47812 0.60969h-0.78907c-0.1675 0-0.47812 0-0.47812-0.34656 0-0.34688 0.31062-0.34688 0.47812-0.34688h0.49v-3.7653h-0.49c-0.1675 0-0.47812 0-0.47812-0.34688 0-0.34656 0.31062-0.34656 0.47812-0.34656h1.7572c0.1675 0 0.47813 0 0.47813 0.34656 0 0.34688-0.31063 0.34688-0.47813 0.34688h-0.49v2.1634c0 1.1597 0.81281 1.6738 1.4584 1.6738 0.6931 0 0.8366-0.39438 0.8366-1.0759v-2.7612h-0.49004c-0.1675 0-0.47812 0-0.47812-0.34688 0-0.34656 0.31062-0.34656 0.47812-0.34656h1.7571c0.1675 0 0.4782 0 0.4782 0.34656 0 0.34688-0.3107 0.34688-0.4782 0.34688h-0.49v2.8091zm6.6062-2.1994c0 0.31062-0.2987 0.31062-0.3944 0.31062-0.275 0-0.3228-0.09562-0.3825-0.26281-0.2631-0.6575-0.8487-0.72937-1.1356-0.72937-1.0162 0-1.8769 0.84875-1.8769 1.9606 0 0.60969 0.3469 1.9844 1.9129 1.9844 0.3225 0 0.5737-0.02407 0.6812-0.03594 0.0838-0.02406 0.0956-0.03594 0.0956-0.09563 0.036-0.49 0.4066-0.50218 0.4782-0.50218 0.2631 0 0.4903 0.17937 0.4903 0.50218 0 0.82469-1.2075 0.82469-1.7335 0.82469-2.044 0-2.7015-1.6734-2.7015-2.6775 0-1.4584 1.1115-2.6541 2.5462-2.6541 1.6019 0 2.02 1.1838 2.02 1.375zm4.1678 5.5106c0 0.37063-0.0716 0.49032-0.4782 0.49032h-1.7572c-0.1671 0-0.4781 0-0.4781-0.34688 0-0.34656 0.311-0.34656 0.4781-0.34656h1.4585v-5.9172h-1.4585c-0.1671 0-0.4781 0-0.4781-0.34688 0-0.34656 0.311-0.34656 0.4781-0.34656h3.6938c0.1675 0 0.4781 0 0.4781 0.34656 0 0.34688-0.3106 0.34688-0.4781 0.34688h-1.4584v6.1203zm7.6824-2.1516c0 0.37063-0.0719 0.49-0.4781 0.49h-0.7891c-0.1675 0-0.4781 0-0.4781-0.34656 0-0.34688 0.3106-0.34688 0.4781-0.34688h0.49v-2.5941c0-0.98-0.8128-1.2431-1.3506-1.2431-0.9444 0-0.9444 0.43031-0.9444 0.80093v3.2397c0 0.37063-0.0719 0.49-0.4781 0.49h-0.7891c-0.1675 0-0.4781 0-0.4781-0.34656 0-0.34688 0.3106-0.34688 0.4781-0.34688h0.49v-3.0959c0-1.0997 0.7172-1.4347 1.6378-1.4347 0.7291 0 1.1835 0.29906 1.4225 0.50219 0-0.43031 0.2869-0.43031 0.49-0.43031h0.7891c0.1675 0 0.4781 0 0.4781 0.34656 0 0.34688-0.3106 0.34688-0.4781 0.34688h-0.49v3.9687zm6.1758 0.14344c0 0.19125 0 0.45406-0.3347 0.45406-0.2868 0-0.3584-0.27469-0.3584-0.28687-0.4784 0.28687-1.0281 0.28687-1.2672 0.28687-1.9484 0-2.2115-0.99219-2.2115-1.3984 0-0.49031 0.2868-0.825 0.6934-1.0522 0.3825-0.215 0.7291-0.27469 1.7094-0.43032 0.4662-0.08343 1.4225-0.23906 1.4225-0.89656 0-0.44219-0.4066-0.86062-1.5182-0.86062-0.765 0-1.2671 0.29875-1.5181 1.1597-0.06 0.16719-0.0956 0.29875-0.3947 0.29875-0.3943 0-0.3943-0.22718-0.3943-0.46625v-1.2312c0-0.19125 0-0.45438 0.3346-0.45438 0.1435 0 0.251 0 0.4304 0.49031 0.55-0.45438 1.1715-0.49031 1.5421-0.49031 2.2116 0 2.2116 1.4347 2.2116 1.5541 0 1.2434-1.4825 1.4944-2.0562 1.5781-1.0519 0.17937-1.7691 0.29875-1.7691 0.80093 0 0.32282 0.3703 0.70532 1.4941 0.70532 1.1356 0 1.1834-0.53813 1.2075-0.84875 0.0237-0.23907 0.239-0.275 0.3825-0.275 0.3943 0 0.3943 0.215 0.3943 0.45406v0.90875zm4.7415 1.9722c0 0.29906-0.239 0.53812-0.5378 0.53812-0.2987 0-0.5378-0.23906-0.5378-0.53812 0-0.29875 0.2391-0.53782 0.5378-0.53782 0.2988 0 0.5378 0.23907 0.5378 0.53782zm-2.0559-1.6256c-0.1675 0-0.4781 0-0.4781-0.34656 0-0.34688 0.3106-0.34688 0.4781-0.34688h1.279v-3.7653h-1.3628c-0.1672 0-0.49 0-0.49-0.34688 0-0.34656 0.3228-0.34656 0.49-0.34656h3.3232c0.1675 0 0.4784 0 0.4784 0.34656 0 0.34688-0.3109 0.34688-0.4784 0.34688h-1.1835v3.9687c0 0.37063-0.0715 0.49-0.4781 0.49h-1.5778zm9.6665-0.69344h0.3109c0.1672 0 0.49 0 0.49 0.34688 0 0.34656-0.3228 0.34656-0.49 0.34656h-1.315c-0.1675 0-0.49 0-0.49-0.34656 0-0.34688 0.3225-0.34688 0.49-0.34688h0.2988l-1.291-3.8491-1.2909 3.8491h0.2987c0.1675 0 0.49 0 0.49 0.34688 0 0.34656-0.3225 0.34656-0.49 0.34656h-1.315c-0.1672 0-0.49 0-0.49-0.34656 0-0.34688 0.3228-0.34688 0.49-0.34688h0.311l1.3747-4.1122c0.1315-0.40625 0.3943-0.40625 0.6215-0.40625s0.49 0 0.6216 0.40625l1.3747 4.1122zm6.0565-2.1634c0.2512 0 0.4781 0 0.4781 0.44218 0 1.3988-0.7888 2.5222-2.2831 2.5222-1.3866 0-2.4985-1.1953-2.4985-2.6538 0-1.5062 1.2075-2.6778 2.6778-2.6778 1.5419 0 2.1038 1.0641 2.1038 1.375 0 0.07156-0.0238 0.33469-0.3944 0.33469-0.2272 0-0.2987-0.08375-0.3706-0.26313-0.2988-0.69344-1.076-0.75312-1.3028-0.75312-0.9922 0-1.7813 0.75312-1.9128 1.6738h3.5025zm-3.4907 0.6575c0.1557 1.0159 0.9325 1.6138 1.6857 1.6138 1.1953 0 1.4465-1.0162 1.4943-1.6138h-3.18zm9.6668 0.54968c0 1.1716-0.55 1.7216-1.5303 1.7216-0.8128 0-1.3387-0.45438-1.5419-0.68157 0 0.4425 0 0.60969-0.4781 0.60969h-0.7891c-0.1675 0-0.4781 0-0.4781-0.34656 0-0.34688 0.3106-0.34688 0.4781-0.34688h0.49v-3.7653h-0.49c-0.1675 0-0.4781 0-0.4781-0.34688 0-0.34656 0.3106-0.34656 0.4781-0.34656h1.7572c0.1675 0 0.4782 0 0.4782 0.34656 0 0.34688-0.3107 0.34688-0.4782 0.34688h-0.49v2.1634c0 1.1597 0.8128 1.6738 1.4585 1.6738 0.6931 0 0.8365-0.39438 0.8365-1.0759v-2.7612h-0.49c-0.1675 0-0.4781 0-0.4781-0.34688 0-0.34656 0.3106-0.34656 0.4781-0.34656h1.7572c0.1675 0 0.4781 0 0.4781 0.34656 0 0.34688-0.3106 0.34688-0.4781 0.34688h-0.49v2.8091zm6.1281-1.2072c0.2512 0 0.4781 0 0.4781 0.44218 0 1.3988-0.7888 2.5222-2.2831 2.5222-1.3866 0-2.4985-1.1953-2.4985-2.6538 0-1.5062 1.2075-2.6778 2.6778-2.6778 1.5419 0 2.1038 1.0641 2.1038 1.375 0 0.07156-0.0238 0.33469-0.3944 0.33469-0.2272 0-0.2987-0.08375-0.3706-0.26313-0.2988-0.69344-1.0759-0.75312-1.3028-0.75312-0.9922 0-1.7813 0.75312-1.9128 1.6738h3.5025zm-3.4907 0.6575c0.1557 1.0159 0.9325 1.6138 1.6857 1.6138 1.1953 0 1.4465-1.0162 1.4943-1.6138h-3.18zm9.6906 1.8528c0 0.19125 0 0.45406-0.3347 0.45406-0.2869 0-0.3584-0.27469-0.3584-0.28687-0.4785 0.28687-1.0282 0.28687-1.2672 0.28687-1.9485 0-2.2116-0.99219-2.2116-1.3984 0-0.49031 0.2869-0.825 0.6935-1.0522 0.3825-0.215 0.729-0.27469 1.7093-0.43032 0.4663-0.08343 1.4225-0.23906 1.4225-0.89656 0-0.44219-0.4065-0.86062-1.5181-0.86062-0.765 0-1.2672 0.29875-1.5181 1.1597-0.06 0.16719-0.0956 0.29875-0.3947 0.29875-0.3944 0-0.3944-0.22718-0.3944-0.46625v-1.2312c0-0.19125 0-0.45438 0.3347-0.45438 0.1434 0 0.2509 0 0.4303 0.49031 0.55-0.45438 1.1716-0.49031 1.5422-0.49031 2.2116 0 2.2116 1.4347 2.2116 1.5541 0 1.2434-1.4825 1.4944-2.0563 1.5781-1.0519 0.17937-1.769 0.29875-1.769 0.80093 0 0.32282 0.3703 0.70532 1.494 0.70532 1.1356 0 1.1835-0.53813 1.2075-0.84875 0.0238-0.23907 0.2391-0.275 0.3825-0.275 0.3944 0 0.3944 0.215 0.3944 0.45406v0.90875zm6.1521 0c0 0.19125 0 0.45406-0.3347 0.45406-0.2869 0-0.3584-0.27469-0.3584-0.28687-0.4785 0.28687-1.0282 0.28687-1.2672 0.28687-1.9485 0-2.2116-0.99219-2.2116-1.3984 0-0.49031 0.2869-0.825 0.6935-1.0522 0.3825-0.215 0.729-0.27469 1.7093-0.43032 0.4663-0.08343 1.4225-0.23906 1.4225-0.89656 0-0.44219-0.4065-0.86062-1.5181-0.86062-0.765 0-1.2672 0.29875-1.5181 1.1597-0.06 0.16719-0.0956 0.29875-0.3947 0.29875-0.3944 0-0.3944-0.22718-0.3944-0.46625v-1.2312c0-0.19125 0-0.45438 0.3347-0.45438 0.1435 0 0.251 0 0.4303 0.49031 0.55-0.45438 1.1716-0.49031 1.5422-0.49031 2.2116 0 2.2116 1.4347 2.2116 1.5541 0 1.2434-1.4825 1.4944-2.0563 1.5781-1.0519 0.17937-1.769 0.29875-1.769 0.80093 0 0.32282 0.3703 0.70532 1.494 0.70532 1.1357 0 1.1835-0.53813 1.2075-0.84875 0.0238-0.23907 0.2391-0.275 0.3825-0.275 0.3944 0 0.3944 0.215 0.3944 0.45406v0.90875z" fill="#e6e6e6"/>
<path d="m238.71 115.37c-0.15531-0.49032-0.34656-1.0641-0.41844-1.4584h-0.01187c-0.09563 0.5975-1.1356 3.7297-1.1597 3.7775-0.13156 0.275-0.37063 0.275-0.57375 0.275h-0.63344c-0.1675 0-0.49031 0-0.49031-0.34688 0-0.34656 0.29906-0.34656 0.60969-0.34656v-5.9172c-0.31062 0-0.60969 0-0.60969-0.34688 0-0.34656 0.32281-0.34656 0.49031-0.34656h0.90844c0.16719 0 0.49 0 0.49 0.34656 0 0.34688-0.29875 0.34688-0.60969 0.34688v5.7737h0.01219c0.07156-0.37062 0.1075-0.50218 0.25094-0.9325l0.84875-2.6656c0.02375-0.09563 0.13156-0.43031 0.47812-0.43031 0.14344 0 0.34656 0.09562 0.44219 0.31062 0.06 0.17938 1.1478 3.5266 1.1478 3.6938v-5.7497c-0.31094 0-0.60969 0-0.60969-0.34688 0-0.34656 0.32282-0.34656 0.49-0.34656h0.90844c0.1675 0 0.49031 0 0.49031 0.34656 0 0.34688-0.29906 0.34688-0.60968 0.34688v5.9172c0.31062 0 0.60968 0 0.60968 0.34656 0 0.34688-0.32281 0.34688-0.49031 0.34688h-0.63344c-0.46625 0-0.53781-0.14344-0.63343-0.45438l-0.69344-2.1397zm7.6343-2.4147c0.2513 0 0.4782 0 0.4782 0.44219 0 1.3988-0.7888 2.5222-2.2832 2.5222-1.3866 0-2.4984-1.1953-2.4984-2.6538 0-1.5062 1.2075-2.6778 2.6778-2.6778 1.5419 0 2.1038 1.0641 2.1038 1.375 0 0.07156-0.0238 0.33469-0.3944 0.33469-0.2272 0-0.2988-0.08375-0.3706-0.26313-0.2988-0.69344-1.076-0.75312-1.3028-0.75312-0.99219 0-1.7812 0.75312-1.9128 1.6738h3.5025zm-3.4906 0.6575c0.15563 1.0159 0.9325 1.6138 1.6856 1.6138 1.1953 0 1.4466-1.0162 1.4944-1.6138h-3.18zm10.085 0.66937c0 0.26282 0 1.6019-1.0521 1.6019-0.4182 0-0.8247-0.19125-1.1475-0.63375-0.0716 0.17937-0.3347 0.63375-0.9085 0.63375-0.5381 0-0.9084-0.34688-1.004-0.45438-0.0122 0.3825-0.2632 0.3825-0.4785 0.3825h-0.3584c-0.1675 0-0.4781 0-0.4781-0.34656 0-0.34687 0.275-0.34687 0.6453-0.34687v-3.7653c-0.3825 0-0.6453 0-0.6453-0.34688 0-0.34656 0.3106-0.34656 0.4781-0.34656h1.004c0.1675 0 0.4782 0 0.4782 0.34656 0 0.34688-0.275 0.34688-0.6453 0.34688v2.1994c0 1.0041 0.4303 1.6378 0.9562 1.6378 0.3347 0 0.4303-0.41844 0.4303-0.98031v-2.8569c-0.2031 0-0.5259 0-0.5259-0.34688 0-0.34656 0.3228-0.34656 0.49-0.34656h0.8728c0.1672 0 0.4781 0 0.4781 0.34656 0 0.34688-0.275 0.34688-0.6456 0.34688v2.1994c0 1.0041 0.4303 1.6378 0.9562 1.6378 0.3347 0 0.4304-0.41844 0.4304-0.98031v-2.8569c-0.2032 0-0.526 0-0.526-0.34688 0-0.34656 0.3228-0.34656 0.4903-0.34656h0.8725c0.1675 0 0.4782 0 0.4782 0.34656 0 0.34688-0.275 0.34688-0.6454 0.34688v2.9287zm2.6615 3.1916c0 0.37062-0.0718 0.49031-0.4781 0.49031h-0.7891c-0.1675 0-0.4781 0-0.4781-0.34688 0-0.34656 0.3106-0.34656 0.4781-0.34656h0.49v-6.1206c0-0.215 0-0.49 0.3947-0.49 0.3825 0 0.3825 0.25094 0.3825 0.59781 0.2869-0.32281 0.7291-0.66969 1.3985-0.66969 1.2672 0 2.379 1.1359 2.379 2.6541 0 1.4703-1.0043 2.6419-2.2475 2.6419-0.8725 0-1.4225-0.52625-1.53-0.64563v2.2353zm0-3.6341c0 0.68157 0.6694 1.3509 1.4463 1.3509 0.8609 0 1.554-0.87281 1.554-1.9484 0-1.1478-0.8128-1.9606-1.6615-1.9606-0.8966 0-1.3388 1.0163-1.3388 1.6138v0.94437zm9.2003-0.88437c0.2512 0 0.4781 0 0.4781 0.44219 0 1.3988-0.7888 2.5222-2.2831 2.5222-1.3866 0-2.4985-1.1953-2.4985-2.6538 0-1.5062 1.2075-2.6778 2.6778-2.6778 1.5419 0 2.1038 1.0641 2.1038 1.375 0 0.07156-0.0238 0.33469-0.3944 0.33469-0.2272 0-0.2987-0.08375-0.3706-0.26313-0.2988-0.69344-1.0759-0.75312-1.3028-0.75312-0.9922 0-1.7813 0.75312-1.9128 1.6738h3.5025zm-3.4907 0.6575c0.1557 1.0159 0.9325 1.6138 1.6857 1.6138 1.1953 0 1.4465-1.0162 1.4943-1.6138h-3.18zm7.2521-0.69344c0 1.4225 1.0041 2.2712 2.02 2.2712 0.06 0 0.1316 0 0.1913-0.01188 0.0359-0.43031 0.3706-0.46624 0.4544-0.46624 0.275 0 0.4662 0.20312 0.4662 0.46624 0 0.51407-0.5022 0.70532-1.0997 0.70532-0.8009 0-1.4825-0.35875-2.0322-1.0281v0.46625c0 0.37063-0.0718 0.49-0.4781 0.49h-1.2075c-0.1675 0-0.4781 0-0.4781-0.34656 0-0.34687 0.3106-0.34687 0.4781-0.34687h0.9085v-3.7653h-0.9085c-0.1675 0-0.4781 0-0.4781-0.34688 0-0.34656 0.3106-0.34656 0.4781-0.34656h2.9406c0.1675 0 0.4782 0 0.4782 0.34656 0 0.34688-0.3107 0.34688-0.4782 0.34688h-1.255v1.5659zm8.5906 2.5462c0 0.19125 0 0.45406-0.3347 0.45406-0.2869 0-0.3584-0.27468-0.3584-0.28687-0.4785 0.28687-1.0282 0.28687-1.2672 0.28687-1.9485 0-2.2116-0.99218-2.2116-1.3984 0-0.49032 0.2869-0.825 0.6935-1.0522 0.3825-0.215 0.729-0.27469 1.7093-0.43031 0.4663-0.08344 1.4225-0.23907 1.4225-0.89657 0-0.44218-0.4065-0.86062-1.5181-0.86062-0.765 0-1.2672 0.29875-1.5181 1.1597-0.06 0.16718-0.0956 0.29875-0.3947 0.29875-0.3944 0-0.3944-0.22719-0.3944-0.46625v-1.2313c0-0.19125 0-0.45438 0.3347-0.45438 0.1434 0 0.2509 0 0.4303 0.49031 0.55-0.45438 1.1716-0.49031 1.5422-0.49031 2.2116 0 2.2116 1.4347 2.2116 1.5541 0 1.2434-1.4825 1.4944-2.0563 1.5781-1.0519 0.17937-1.769 0.29875-1.769 0.80094 0 0.32281 0.3703 0.70531 1.494 0.70531 1.1356 0 1.1835-0.53813 1.2075-0.84875 0.0238-0.23906 0.2391-0.275 0.3825-0.275 0.3944 0 0.3944 0.215 0.3944 0.45406v0.90875zm6.1284-1.3031c0 1.1716-0.55 1.7216-1.5304 1.7216-0.8128 0-1.3387-0.45438-1.5418-0.68156v2.2712c0 0.37062-0.0719 0.49031-0.4782 0.49031h-0.789c-0.1675 0-0.4781 0-0.4781-0.34688 0-0.34656 0.3106-0.34656 0.4781-0.34656h0.49v-5.9172h-0.49c-0.1675 0-0.4781 0-0.4781-0.34688 0-0.34656 0.3106-0.34656 0.4781-0.34656h1.7572c0.1675 0 0.4781 0 0.4781 0.34656 0 0.34688-0.3106 0.34688-0.4781 0.34688h-0.49v2.1634c0 1.1597 0.8128 1.6738 1.4584 1.6738 0.6931 0 0.8366-0.39437 0.8366-1.0759v-2.7612h-0.49c-0.1675 0-0.4782 0-0.4782-0.34688 0-0.34656 0.3107-0.34656 0.4782-0.34656h1.7572c0.1675 0 0.4781 0 0.4781 0.34656 0 0.34688-0.3106 0.34688-0.4781 0.34688h-0.49v2.8091zm4.7652 3.2753c0 0.29906-0.2391 0.53812-0.5378 0.53812-0.2988 0-0.5378-0.23906-0.5378-0.53812 0-0.29875 0.239-0.53781 0.5378-0.53781 0.2987 0 0.5378 0.23906 0.5378 0.53781zm-2.0559-1.6256c-0.1675 0-0.4782 0-0.4782-0.34656 0-0.34687 0.3107-0.34687 0.4782-0.34687h1.279v-3.7653h-1.3628c-0.1672 0-0.49 0-0.49-0.34688 0-0.34656 0.3228-0.34656 0.49-0.34656h3.3231c0.1675 0 0.4785 0 0.4785 0.34656 0 0.34688-0.311 0.34688-0.4785 0.34688h-1.1834v3.9687c0 0.37063-0.0716 0.49-0.4781 0.49h-1.5778zm7.0127-7.8059c0.1675 0 0.4781 0 0.4781 0.34656 0 0.34687-0.3106 0.34687-0.4781 0.34687h-0.49v2.5581c0.2869-0.32281 0.729-0.66969 1.3984-0.66969 1.2672 0 2.3791 1.1359 2.3791 2.6541 0 1.4703-1.0044 2.6419-2.2475 2.6419-0.8725 0-1.4225-0.52625-1.53-0.64563 0 0.39438 0 0.57375-0.4781 0.57375h-0.7891c-0.1675 0-0.4781 0-0.4781-0.34656 0-0.34687 0.3106-0.34687 0.4781-0.34687h0.49v-6.4191h-0.49c-0.1675 0-0.4781 0-0.4781-0.34687 0-0.34656 0.3106-0.34656 0.4781-0.34656h1.7572zm-0.49 5.8334c0 0.68157 0.6694 1.3509 1.4462 1.3509 0.861 0 1.5541-0.87281 1.5541-1.9484 0-1.1478-0.8128-1.9606-1.6616-1.9606-0.8965 0-1.3387 1.0163-1.3387 1.6138v0.94437z" fill="#e6e6e6"/>
<path d="m143.62 54.833c0 0.19125 0 0.45438-0.33468 0.45438-0.21532 0-0.275-0.13157-0.32282-0.21532-0.03593-0.09562-0.13156-0.31062-0.1675-0.39437-0.49 0.43031-1.04 0.60969-1.5419 0.60969-1.5422 0-2.8213-1.6497-2.8213-3.7897 0-2.1875 1.315-3.8012 2.8213-3.8012 1.3984 0 2.3669 1.1116 2.3669 2.1638 0 0.37062-0.25093 0.37062-0.39437 0.37062-0.1675 0-0.35875-0.06-0.38281-0.26312-0.09563-1.4944-1.3028-1.5778-1.5059-1.5778-1.1119 0-2.1278 1.3028-2.1278 3.1078 0 1.8053 1.0278 3.0962 2.1156 3.0962 0.64563 0 1.3509-0.51406 1.5181-1.6138 0.03593-0.26313 0.14375-0.33469 0.38281-0.33469 0.39437 0 0.39437 0.215 0.39437 0.45406v1.7334zm5.9368-4.4109c0 1.4941-1.0878 2.6775-2.3787 2.6775-1.2909 0-2.3788-1.1834-2.3788-2.6775 0-1.5062 1.0997-2.6541 2.3788-2.6541 1.279 0 2.3787 1.1478 2.3787 2.6541zm-2.3787-1.9606c-0.86062 0-1.6019 0.90844-1.6019 2.0441 0 1.1119 0.765 1.9009 1.6019 1.9009 0.83692 0 1.6019-0.78906 1.6019-1.9009 0-1.1475-0.7413-2.0441-1.6019-2.0441zm8.0768 2.8809c0 1.1716-0.55 1.7216-1.5303 1.7216-0.8128 0-1.3388-0.45438-1.5419-0.68156 0 0.4425 0 0.60968-0.4781 0.60968h-0.7891c-0.1675 0-0.4781 0-0.4781-0.34656 0-0.34687 0.3106-0.34687 0.4781-0.34687h0.49v-3.7653h-0.49c-0.1675 0-0.4781 0-0.4781-0.34688 0-0.34656 0.3106-0.34656 0.4781-0.34656h1.7572c0.1675 0 0.4781 0 0.4781 0.34656 0 0.34688-0.3106 0.34688-0.4781 0.34688h-0.49v2.1634c0 1.1597 0.8128 1.6738 1.4584 1.6738 0.6932 0 0.8366-0.39437 0.8366-1.0759v-2.7612h-0.49c-0.1675 0-0.4781 0-0.4781-0.34688 0-0.34656 0.3106-0.34656 0.4781-0.34656h1.7572c0.1675 0 0.4781 0 0.4781 0.34656 0 0.34688-0.3106 0.34688-0.4781 0.34688h-0.49v2.8091zm6.1758 1.3031c0 0.19125 0 0.45406-0.3346 0.45406-0.2869 0-0.3585-0.27468-0.3585-0.28687-0.4784 0.28687-1.0281 0.28687-1.2672 0.28687-1.9484 0-2.2115-0.99218-2.2115-1.3984 0-0.49032 0.2868-0.825 0.6934-1.0522 0.3825-0.215 0.7291-0.27469 1.7094-0.43031 0.4662-0.08344 1.4225-0.23907 1.4225-0.89657 0-0.44218-0.4066-0.86062-1.5182-0.86062-0.765 0-1.2671 0.29875-1.5181 1.1597-0.06 0.16718-0.0956 0.29875-0.3947 0.29875-0.3943 0-0.3943-0.22719-0.3943-0.46625v-1.2313c0-0.19125 0-0.45438 0.3346-0.45438 0.1435 0 0.251 0 0.4304 0.49031 0.55-0.45438 1.1715-0.49031 1.5421-0.49031 2.2116 0 2.2116 1.4347 2.2116 1.5541 0 1.2434-1.4825 1.4944-2.0562 1.5781-1.0519 0.17937-1.7691 0.29875-1.7691 0.80094 0 0.32281 0.3703 0.70531 1.4941 0.70531 1.1356 0 1.1834-0.53813 1.2075-0.84875 0.0237-0.23906 0.239-0.275 0.3825-0.275 0.3943 0 0.3943 0.215 0.3943 0.45406v0.90875zm6.1043-2.5103c0.2513 0 0.4782 0 0.4782 0.44219 0 1.3988-0.7888 2.5222-2.2832 2.5222-1.3865 0-2.4984-1.1953-2.4984-2.6538 0-1.5062 1.2075-2.6778 2.6778-2.6778 1.5419 0 2.1038 1.0641 2.1038 1.375 0 0.07156-0.0238 0.33469-0.3944 0.33469-0.2272 0-0.2988-0.08375-0.3706-0.26313-0.2988-0.69343-1.076-0.75312-1.3029-0.75312-0.9921 0-1.7812 0.75312-1.9128 1.6738h3.5025zm-3.4906 0.6575c0.1556 1.0159 0.9325 1.6138 1.6856 1.6138 1.1953 0 1.4466-1.0162 1.4944-1.6138h-3.18zm9.6668 0.54969c0 1.1716-0.55 1.7216-1.5303 1.7216-0.8128 0-1.3388-0.45438-1.5419-0.68156 0 0.4425 0 0.60968-0.4781 0.60968h-0.7891c-0.1675 0-0.4781 0-0.4781-0.34656 0-0.34687 0.3106-0.34687 0.4781-0.34687h0.49v-3.7653h-0.49c-0.1675 0-0.4781 0-0.4781-0.34688 0-0.34656 0.3106-0.34656 0.4781-0.34656h1.7572c0.1675 0 0.4781 0 0.4781 0.34656 0 0.34688-0.3106 0.34688-0.4781 0.34688h-0.49v2.1634c0 1.1597 0.8128 1.6738 1.4585 1.6738 0.6931 0 0.8365-0.39437 0.8365-1.0759v-2.7612h-0.49c-0.1675 0-0.4781 0-0.4781-0.34688 0-0.34656 0.3106-0.34656 0.4781-0.34656h1.7572c0.1675 0 0.4781 0 0.4781 0.34656 0 0.34688-0.3106 0.34688-0.4781 0.34688h-0.49v2.8091zm3.7374 0.95625h1.9366c0.1672 0 0.4781 0 0.4781 0.34687 0 0.34656-0.3109 0.34656-0.4781 0.34656h-1.9366v0.98032c0 0.215 0 0.49-0.3825 0.49-0.3947 0-0.3947-0.275-0.3947-0.49v-0.98032h-1.0159c-0.1675 0-0.4903 0-0.4903-0.34656 0-0.34687 0.3109-0.34687 0.4781-0.34687h1.0281v-3.0122c0-1.1119 0.765-1.5184 1.626-1.5184 0.6453 0 1.8287 0.32281 1.8287 1.5422 0 0.23906 0 0.50219-0.3943 0.50219-0.3825 0-0.3825-0.26313-0.3825-0.51407-0.0119-0.71718-0.6935-0.83687-0.9685-0.83687-0.9322 0-0.9322 0.59781-0.9322 0.88469v2.9525z" fill="#e6e6e6"/>
<path d="m39.811 117.27c0.37062 0 0.64562 0 0.64562 0.34656 0 0.34688-0.31094 0.34688-0.47844 0.34688h-1.1234c-0.1675 0-0.49032 0-0.49032-0.34688 0-0.34656 0.28688-0.34656 0.64563-0.34656l-0.96844-3.8612c-0.15531-0.60969-0.35844-1.4462-0.43031-1.9366h-0.01188c-0.07156 0.46625-0.20312 0.96844-0.32281 1.4584l-1.0878 4.3394c0.35875 0 0.64562 0 0.64562 0.34656 0 0.34688-0.32281 0.34688-0.49031 0.34688h-1.1234c-0.1675 0-0.47812 0-0.47812-0.34688 0-0.34656 0.27469-0.34656 0.63344-0.34656h0.011875l1.59-6.2878c0.1075-0.43031 0.35844-0.43031 0.62156-0.43031 0.26313 0 0.50219 0 0.60969 0.40625l1.6019 6.3119zm6.3193-4.0284c0 1.4941-1.0879 2.6775-2.3788 2.6775-1.2909 0-2.3788-1.1834-2.3788-2.6775 0-1.5062 1.0997-2.6541 2.3788-2.6541 1.2791 0 2.3788 1.1478 2.3788 2.6541zm-2.3788-1.9606c-0.86062 0-1.6019 0.90844-1.6019 2.0441 0 1.1119 0.765 1.9009 1.6019 1.9009 0.8369 0 1.6019-0.78906 1.6019-1.9009 0-1.1475-0.7413-2.0441-1.6019-2.0441zm5.6621 3.8372h1.9366c0.1672 0 0.4781 0 0.4781 0.34687 0 0.34656-0.3109 0.34656-0.4781 0.34656h-1.9366v0.98032c0 0.215 0 0.49-0.3825 0.49-0.3947 0-0.3947-0.275-0.3947-0.49v-0.98032h-1.0159c-0.1675 0-0.4903 0-0.4903-0.34656 0-0.34687 0.3109-0.34687 0.4781-0.34687h1.0281v-3.0122c0-1.1119 0.765-1.5184 1.626-1.5184 0.6453 0 1.8287 0.32281 1.8287 1.5422 0 0.23906 0 0.50219-0.3944 0.50219-0.3825 0-0.3825-0.26313-0.3825-0.51407-0.0118-0.71718-0.6934-0.83687-0.9684-0.83687-0.9322 0-0.9322 0.59781-0.9322 0.88469v2.9525zm7.1799 2.3191c0 0.29906-0.239 0.53812-0.5378 0.53812-0.2987 0-0.5378-0.23906-0.5378-0.53812 0-0.29875 0.2391-0.53781 0.5378-0.53781 0.2988 0 0.5378 0.23906 0.5378 0.53781zm-2.0559-1.6256c-0.1675 0-0.4781 0-0.4781-0.34656 0-0.34687 0.3106-0.34687 0.4781-0.34687h1.2791v-3.7653h-1.3629c-0.1671 0-0.49 0-0.49-0.34688 0-0.34656 0.3229-0.34656 0.49-0.34656h3.3232c0.1675 0 0.4784 0 0.4784 0.34656 0 0.34688-0.3109 0.34688-0.4784 0.34688h-1.1835v3.9687c0 0.37063-0.0715 0.49-0.4781 0.49h-1.5778zm9.5949-1.6497c0 1.1716-0.55 1.7216-1.5303 1.7216-0.8128 0-1.3387-0.45438-1.5419-0.68156 0 0.4425 0 0.60968-0.4781 0.60968h-0.7891c-0.1675 0-0.4781 0-0.4781-0.34656 0-0.34687 0.3106-0.34687 0.4781-0.34687h0.49v-3.7653h-0.49c-0.1675 0-0.4781 0-0.4781-0.34688 0-0.34656 0.3106-0.34656 0.4781-0.34656h1.7572c0.1675 0 0.4782 0 0.4782 0.34656 0 0.34688-0.3107 0.34688-0.4782 0.34688h-0.49v2.1634c0 1.1597 0.8128 1.6738 1.4585 1.6738 0.6931 0 0.8365-0.39437 0.8365-1.0759v-2.7612h-0.49c-0.1675 0-0.4781 0-0.4781-0.34688 0-0.34656 0.3106-0.34656 0.4781-0.34656h1.7572c0.1675 0 0.4781 0 0.4781 0.34656 0 0.34688-0.3106 0.34688-0.4781 0.34688h-0.49v2.8091zm3.4265-2.7734c-0.1434 0-0.6934 0-0.6934 0.64562 0 0.22719 0.0359 0.275 0.0837 0.37063 0.2391-0.1675 0.6338-0.32281 1.0641-0.32281 1.0878 0 1.9244 0.87281 1.9244 1.9006 0 0.29906-0.0716 0.66969-0.3225 1.0641 0.3106 0.16719 0.5975 0.20313 0.7768 0.215 0.0719-0.37031 0.4185-0.3825 0.4303-0.3825 0.1435 0 0.4425 0.09563 0.4425 0.45438 0 0.22719-0.1793 0.62156-0.8487 0.62156-0.2153 0-0.7531-0.04781-1.2553-0.44219-0.3944 0.275-0.801 0.37063-1.1356 0.37063-1.0879 0-1.9247-0.87281-1.9247-1.9009 0-0.26281 0.0597-0.71719 0.3947-1.1475-0.2272-0.33469-0.2632-0.69344-0.2632-0.83687 0-0.41844 0.2032-0.75313 0.2988-0.86063-0.6575-0.35844-0.8966-1.0041-0.8966-1.4703 0-0.99219 1.2075-1.7453 2.7256-1.7453 1.5182 0 2.7257 0.74125 2.7257 1.7453 0 1.7212-2.116 1.7212-2.5103 1.7212h-1.0163zm0.4544 1.3628c-0.5978 0-1.1356 0.52594-1.1356 1.2312s0.5496 1.2312 1.1356 1.2312c0.6334 0 1.1475-0.54969 1.1475-1.2312 0-0.68125-0.5141-1.2312-1.1475-1.2312zm0.3465-4.16c-1.1715 0-2.044 0.52594-2.044 1.0759 0 0.17938 0.0597 0.59781 0.5019 0.8725 0.275 0.17938 0.3946 0.17938 1.2193 0.17938 1.0519 0 2.3669 0 2.3669-1.0519 0-0.55-0.8725-1.0759-2.0441-1.0759z" fill="#e6e6e6"/>
<path d="m17.059 237.27c0.6575 0.3825 1.0162 1.0281 1.0162 1.6734 0 0.99218-0.87282 1.9966-2.2834 1.9966h-2.0322c-0.17938 0-0.47812 0-0.47812-0.34688 0-0.34656 0.31094-0.34656 0.47812-0.34656h0.26313v-5.9172h-0.26313c-0.16719 0-0.47812 0-0.47812-0.34688 0-0.34656 0.29875-0.34656 0.47812-0.34656h1.3031c0.16718 0 0.49 0 0.49 0.34656 0 0.34688-0.32282 0.34688-0.49 0.34688h-0.26313v2.6178h0.94438c0.21531 0 0.58593 0 0.96843-0.33469 0.275-0.25094 0.275-0.52594 0.275-1.04 0-0.83688 0-1.1834 0.22688-1.59 0.19125-0.31062 0.50219-0.49 0.87281-0.49 0.78875 0 1.0281 0.82469 1.0281 1.2553 0 0.23906-0.10782 0.39438-0.39469 0.39438-0.35844 0-0.3825-0.28688-0.3825-0.39438 0-0.08375-0.03594-0.56187-0.25094-0.56187-0.32281 0-0.32281 0.52593-0.32281 1.2072 0 0.81282 0 0.88469-0.11969 1.1834-0.15531 0.34688-0.44219 0.58594-0.58562 0.69344zm-1.3866 0.37062h-0.87281v2.6059h0.87281c1.0997 0 1.6256-0.71719 1.6256-1.3031 0-0.58563-0.52594-1.3028-1.6256-1.3028zm7.0843 2.7731c0 0.29906-0.23906 0.53812-0.53781 0.53812s-0.53781-0.23906-0.53781-0.53812c0-0.29875 0.23906-0.53781 0.53781-0.53781s0.53781 0.23906 0.53781 0.53781zm-2.0559-1.6256c-0.1675 0-0.47812 0-0.47812-0.34656 0-0.34687 0.31062-0.34687 0.47812-0.34687h1.2791v-3.7653h-1.3628c-0.16718 0-0.49 0-0.49-0.34688 0-0.34656 0.32282-0.34656 0.49-0.34656h3.3232c0.1675 0 0.4784 0 0.4784 0.34656 0 0.34688-0.3109 0.34688-0.4784 0.34688h-1.1835v3.9687c0 0.37063-0.07156 0.49-0.47812 0.49h-1.5778zm6.8693-4.4231c-0.1434 0-0.6934 0-0.6934 0.64562 0 0.22719 0.0359 0.275 0.0837 0.37063 0.2391-0.1675 0.6338-0.32281 1.0641-0.32281 1.0878 0 1.9243 0.87281 1.9243 1.9006 0 0.29906-0.0715 0.66969-0.3225 1.0641 0.3107 0.16719 0.5975 0.20313 0.7769 0.215 0.0719-0.37031 0.4185-0.3825 0.4303-0.3825 0.1435 0 0.4425 0.09563 0.4425 0.45438 0 0.22719-0.1793 0.62156-0.8487 0.62156-0.2153 0-0.7531-0.04781-1.2553-0.44219-0.3944 0.275-0.801 0.37063-1.1357 0.37063-1.0878 0-1.9246-0.87281-1.9246-1.9009 0-0.26281 0.0596-0.71719 0.3946-1.1475-0.2271-0.33469-0.2631-0.69344-0.2631-0.83687 0-0.41844 0.2031-0.75313 0.2988-0.86063-0.6575-0.35844-0.8966-1.0041-0.8966-1.4703 0-0.99219 1.2075-1.7453 2.7256-1.7453 1.5182 0 2.7257 0.74125 2.7257 1.7453 0 1.7212-2.116 1.7212-2.5104 1.7212h-1.0162zm0.4544 1.3628c-0.5978 0-1.1357 0.52594-1.1357 1.2312s0.5497 1.2312 1.1357 1.2312c0.6334 0 1.1475-0.54969 1.1475-1.2312 0-0.68125-0.5141-1.2312-1.1475-1.2312zm0.3465-4.16c-1.1715 0-2.044 0.52594-2.044 1.0759 0 0.17938 0.0597 0.59781 0.5018 0.8725 0.275 0.17938 0.3947 0.17938 1.2194 0.17938 1.0519 0 2.3669 0 2.3669-1.0519 0-0.55-0.8725-1.0759-2.0441-1.0759zm8.0768 5.5706c0 1.1716-0.55 1.7216-1.5303 1.7216-0.8128 0-1.3387-0.45438-1.5419-0.68156v2.2712c0 0.37062-0.0718 0.49031-0.4781 0.49031h-0.7891c-0.1674 0-0.4781 0-0.4781-0.34688 0-0.34656 0.3107-0.34656 0.4781-0.34656h0.49v-5.9172h-0.49c-0.1674 0-0.4781 0-0.4781-0.34688 0-0.34656 0.3107-0.34656 0.4781-0.34656h1.7572c0.1675 0 0.4782 0 0.4782 0.34656 0 0.34688-0.3107 0.34688-0.4782 0.34688h-0.49v2.1634c0 1.1597 0.8128 1.6738 1.4585 1.6738 0.6931 0 0.8365-0.39437 0.8365-1.0759v-2.7612h-0.49c-0.1675 0-0.4781 0-0.4781-0.34688 0-0.34656 0.3106-0.34656 0.4781-0.34656h1.7572c0.1675 0 0.4782 0 0.4782 0.34656 0 0.34688-0.3107 0.34688-0.4782 0.34688h-0.49v2.8091zm3.7374 0.95625h1.9366c0.1672 0 0.4781 0 0.4781 0.34687 0 0.34656-0.3109 0.34656-0.4781 0.34656h-1.9366v0.98032c0 0.215 0 0.49-0.3825 0.49-0.3946 0-0.3946-0.275-0.3946-0.49v-0.98032h-1.016c-0.1675 0-0.4903 0-0.4903-0.34656 0-0.34687 0.3109-0.34687 0.4781-0.34687h1.0282v-3.0122c0-1.1119 0.765-1.5184 1.6259-1.5184 0.6453 0 1.8287 0.32281 1.8287 1.5422 0 0.23906 0 0.50219-0.3943 0.50219-0.3825 0-0.3825-0.26313-0.3825-0.51407-0.0119-0.71718-0.6935-0.83687-0.9685-0.83687-0.9322 0-0.9322 0.59781-0.9322 0.88469v2.9525z" fill="#e6e6e6"/>
<path d="m52.464 238.09h1.9366c0.1672 0 0.4781 0 0.4781 0.34687 0 0.34656-0.3109 0.34656-0.4781 0.34656h-1.9366v0.98032c0 0.215 0 0.49-0.3825 0.49-0.3947 0-0.3947-0.275-0.3947-0.49v-0.98032h-1.0159c-0.1675 0-0.4903 0-0.4903-0.34656 0-0.34687 0.3109-0.34687 0.4781-0.34687h1.0281v-3.0122c0-1.1119 0.765-1.5184 1.626-1.5184 0.6453 0 1.8287 0.32281 1.8287 1.5422 0 0.23906 0 0.50219-0.3944 0.50219-0.3825 0-0.3825-0.26313-0.3825-0.51407-0.0118-0.71718-0.6934-0.83687-0.9684-0.83687-0.9322 0-0.9322 0.59781-0.9322 0.88469v2.9525zm9.0209-1.8766c0 1.4941-1.0878 2.6775-2.3788 2.6775-1.2909 0-2.3787-1.1834-2.3787-2.6775 0-1.5062 1.0997-2.6541 2.3787-2.6541 1.2791 0 2.3788 1.1478 2.3788 2.6541zm-2.3788-1.9606c-0.8606 0-1.6018 0.90844-1.6018 2.0441 0 1.1119 0.765 1.9009 1.6018 1.9009 0.8369 0 1.6019-0.78906 1.6019-1.9009 0-1.1475-0.7412-2.0441-1.6019-2.0441z" fill="#e6e6e6"/>
<path d="m71.802 240.44c0 0.37062-0.0715 0.49031-0.4781 0.49031h-1.7572c-0.1672 0-0.4781 0-0.4781-0.34688 0-0.34656 0.3109-0.34656 0.4781-0.34656h1.4584v-5.9172h-1.4584c-0.1672 0-0.4781 0-0.4781-0.34688 0-0.34656 0.3109-0.34656 0.4781-0.34656h3.6938c0.1675 0 0.4781 0 0.4781 0.34656 0 0.34688-0.3106 0.34688-0.4781 0.34688h-1.4585v6.1203zm6.2956-0.03594c0 0.29906-0.2391 0.53812-0.5378 0.53812-0.2988 0-0.5379-0.23906-0.5379-0.53812 0-0.29875 0.2391-0.53781 0.5379-0.53781 0.2987 0 0.5378 0.23906 0.5378 0.53781zm-2.056-1.6256c-0.1675 0-0.4781 0-0.4781-0.34656 0-0.34687 0.3106-0.34687 0.4781-0.34687h1.2791v-3.7653h-1.3628c-0.1672 0-0.49 0-0.49-0.34688 0-0.34656 0.3228-0.34656 0.49-0.34656h3.3231c0.1675 0 0.4784 0 0.4784 0.34656 0 0.34688-0.3109 0.34688-0.4784 0.34688h-1.1834v3.9687c0 0.37063-0.0716 0.49-0.4782 0.49h-1.5778zm7.5509-0.69343h1.4462c0.1675 0 0.4782 0 0.4782 0.34687 0 0.34656-0.3107 0.34656-0.4782 0.34656h-1.4462v0.59782c0 0.93218 0.8366 0.93218 1.2191 0.93218 0-0.02375 0.0956-0.46593 0.4903-0.46593 0.1912 0 0.4662 0.14343 0.4662 0.47812 0 0.68125-0.9087 0.68125-1.0878 0.68125-0.9087 0-1.865-0.51406-1.865-1.5778v-0.64563h-1.1834c-0.1675 0-0.49 0-0.49-0.34656 0-0.34687 0.3106-0.34687 0.4781-0.34687h1.1953v-3.7653h-1.1356c-0.1675 0-0.4781 0-0.4781-0.34688 0-0.34656 0.3106-0.34656 0.4781-0.34656h3.0484c0.1672 0 0.4781 0 0.4781 0.34656 0 0.34688-0.3109 0.34688-0.4781 0.34688h-1.1356v3.7653zm8.1721-2.1634c0.2512 0 0.4781 0 0.4781 0.44219 0 1.3988-0.7887 2.5222-2.2831 2.5222-1.3866 0-2.4984-1.1953-2.4984-2.6538 0-1.5062 1.2075-2.6778 2.6778-2.6778 1.5418 0 2.1037 1.0641 2.1037 1.375 0 0.07156-0.0237 0.33469-0.3943 0.33469-0.2272 0-0.2988-0.08375-0.3707-0.26313-0.2987-0.69343-1.0759-0.75312-1.3028-0.75312-0.9922 0-1.7812 0.75312-1.9128 1.6738h3.5025zm-3.4906 0.6575c0.1556 1.0159 0.9325 1.6138 1.6856 1.6138 1.1953 0 1.4466-1.0162 1.4944-1.6138h-3.18z" fill="#e6e6e6"/>
</g>
</svg>
